<svg id="ebf8732b-01e7-4630-93e6-fab46292086a" data-name="Calque 1" xmlns="http://www.w3.org/2000/svg" viewBox="0 0 139.56 139.56"><path d="M93.94,25.2l-11.31,8H65L61.9,29.7A8,8,0,0,0,56,27.09H48.15V20.24a4,4,0,0,1,4-4H86Z" style="fill:#48452c"/><path d="M65,33.15h17.6v8.26H65Z" style="fill:#fcdd2e"/><path d="M93.94,115.11H42.46v-2.93A122.19,122.19,0,0,1,65,41.41h17.6l4.57,3.2a15.86,15.86,0,0,1,6.74,13Z" style="fill:#e14c4c"/><path d="M57.62,115c.88-26.26,7.5-51.71,19.14-73.63H87.92l2.57,2.24a11,11,0,0,1,3.45,8.27V115Z" style="fill:#d14040"/><path d="M41.69,20.64h6.46v6.45H41.69Z" style="fill:#d14040"/><path d="M48.15,27.09v6.06l-4.4,8.26h5.86l5.76-8.26V27.09Z" style="fill:#fcdd2e"/></svg>