<svg id="Capa_1" enable-background="new 0 0 512 512" height="512" viewBox="0 0 512 512" width="512" xmlns="http://www.w3.org/2000/svg"><g><g><path d="m207.41 193.84c-30.354 0-55.049 24.695-55.049 55.049v22.361h34.304c30.354 0 55.049-24.695 55.049-55.049v-22.361z" fill="#19a995"/><path d="m64.781 241.473h-64.781v24.593c0 34.208 27.83 62.039 62.039 62.039h64.781v-24.592c0-34.21-27.831-62.04-62.039-62.04z" fill="#19a995"/><g fill="#0d7579"><path d="m0 241.473v24.593c0 34.208 27.83 62.039 62.039 62.039h64.781z"/><path d="m152.361 271.25h34.304c30.354 0 55.049-24.695 55.049-55.049v-22.361z"/></g></g><g><path d="m269.113 93.861v30.043h24.691v76.996l-33.355 61.723c-3.107 5.749-6.005 11.579-8.738 17.469h90.02l11.11-84.932-11.111-101.299z" fill="#fff5f5"/><path d="m451.767 117.804h-55.168v-23.943h-54.869v186.232h96.972c-2.732-5.908-5.649-11.735-8.748-17.469l-33.355-61.723v-53.054h55.168c16.646 0 30.189 13.543 30.189 30.189v12.728c0 15.245-12.402 27.647-27.647 27.647v30.044c31.811 0 57.69-25.88 57.69-57.69v-12.728c.001-33.213-27.019-60.233-60.232-60.233z" fill="#ebebf0"/></g><g><path d="m251.711 280.093c-14.592 31.45-23.855 64.84-27.545 99.535l5.077 98.202 112.487.001 28.247-101.372-28.247-96.366z" fill="#fef176"/><path d="m297.071 34.168 9.857 59.693 34.802 11.074v-70.767z" fill="#c8885e"/><path d="m386.39 34.168h-44.66v70.767l34.803-11.074z" fill="#a97450"/></g><g><path d="m306.928 93.861 5.005 30.312h29.797l11.11-13.209-11.11-17.103z" fill="#a97450"/></g><path d="m376.533 93.861h-34.803v30.312h29.797z" fill="#885142"/><path d="m468.012 413.097c0-45.851-10.089-91.444-29.31-133.004h-96.972v197.738l126.282.001z" fill="#fecb2e"/><path d="m140.567 206.878c-3.232-4.799-6.946-9.323-11.128-13.506l-26.149-26.149-21.244 21.244 26.149 26.149c11.318 11.318 17.55 26.365 17.55 42.37v98.763h14.822 15.222v-98.763c0-18.115-5.324-35.41-15.222-50.108z" fill="#f2e3cb"/><g><path d="m140.567 350.205c-27.993 0-50.686 22.693-50.686 50.686v26.254c0 27.993 22.693 50.686 50.686 50.686l7.67-66.047z" fill="#92e170"/><path d="m140.567 350.205v127.627c27.993 0 50.686-22.693 50.686-50.686v-26.254c.001-27.994-22.692-50.687-50.686-50.687z" fill="#1fc979"/></g><g><path d="m201.088 376.459c-27.993 0-50.686 22.693-50.686 50.686 0 27.993 22.693 50.686 50.686 50.686h13.57l15.207-50.686-15.207-50.686z" fill="#92e170"/></g><path d="m227.343 376.459h-12.684v101.373h12.684c27.993 0 50.686-22.693 50.686-50.686 0-27.994-22.693-50.687-50.686-50.687z" fill="#1fc979"/></g></svg>