<svg id="a80da11d-3a45-406a-8dc7-5ebd2265cfab" data-name="Calque 1" xmlns="http://www.w3.org/2000/svg" viewBox="0 0 139.56 139.56"><path d="M81.47,83.45a9.16,9.16,0,0,0,3.19-2.23l15.62-17a18.05,18.05,0,0,0,3.12-19,4.73,4.73,0,0,1,.89-4.95l5.84-6.36-9.4-8.63-5.84,6.36A4.75,4.75,0,0,1,90,32.93a18,18,0,0,0-18.65,4.74l-15.63,17a9.18,9.18,0,0,0-2,3.37l-.29.91a9.15,9.15,0,0,1-5.63,5.88,9.19,9.19,0,0,0-3.68,2.43L28.51,84.4l-4.89,5.33c-2.7,2.94-2.31,7.69.86,10.61a8.2,8.2,0,0,0,4.78,2.14,1.54,1.54,0,0,1,1.38,1.26A8.28,8.28,0,0,0,38,110.46a1.54,1.54,0,0,1,1.38,1.26,8.17,8.17,0,0,0,2.55,4.57,7.52,7.52,0,0,0,10.64-.05L73,93.92A9.3,9.3,0,0,0,75.19,90a9.08,9.08,0,0,1,5.29-6.11Z" style="fill:#f3f0f3"/><path d="M80.48,83.87A9,9,0,0,0,75.2,90,9.43,9.43,0,0,1,73,93.92L52.52,116.25a7,7,0,0,1-5.14,2.22,8.09,8.09,0,0,1-5.5-2.18,7.89,7.89,0,0,1-1.49-1.8,8,8,0,0,0,3.57.84,7,7,0,0,0,5.14-2.22L69.58,90.78a9.24,9.24,0,0,0,2.19-3.94,9.1,9.1,0,0,1,5.29-6.11l1-.42a9.16,9.16,0,0,0,3.19-2.23l15.62-17a14.33,14.33,0,0,0,3.73-7.87,19.38,19.38,0,0,0-1.11-8.6A8.44,8.44,0,0,1,99,40.37a6.58,6.58,0,0,1,1.93-3.27l4.88-5.32,3.41,3.14-4.88,5.32a4.74,4.74,0,0,0-.89,5,18,18,0,0,1-3.12,19l-15.62,17a9.16,9.16,0,0,1-3.19,2.23Z" style="fill:#e2dee2"/><path d="M80.48,83.87A9.08,9.08,0,0,0,75.19,90,9.41,9.41,0,0,1,73,93.92L52.52,116.24a6.94,6.94,0,0,1-5.14,2.23,8.13,8.13,0,0,1-5.5-2.17,8.23,8.23,0,0,1-2.55-4.58A1.54,1.54,0,0,0,38,110.46a8.32,8.32,0,0,1-2.5-.65,8.48,8.48,0,0,1-2.27-1.49,8.19,8.19,0,0,1-2.54-4.57,1.54,1.54,0,0,0-1.38-1.27,8.26,8.26,0,0,1-4.78-2.14,7.54,7.54,0,0,1-.86-10.61L44.2,67.3a9.08,9.08,0,0,1,3.69-2.44A9.12,9.12,0,0,0,53.5,59l.3-.91a9.18,9.18,0,0,1,2-3.37l15.63-17A17.4,17.4,0,0,1,83.3,32.12l21.48,19.71a17.35,17.35,0,0,1-4.5,12.35l-15.62,17a9.05,9.05,0,0,1-3.19,2.24Z" style="fill:#695f69"/><path d="M80.48,83.87A8.77,8.77,0,0,0,75.19,90,9.41,9.41,0,0,1,73,93.92L52.52,116.24A6.7,6.7,0,0,1,49.84,118a7.21,7.21,0,0,1-2.1.43c-.23,0-.48,0-.72,0a8.14,8.14,0,0,1-5.14-2.17,8.3,8.3,0,0,1-1.21-1.37l-.27-.41a0,0,0,0,0,0,0,8,8,0,0,0,3.57.84,7,7,0,0,0,5.14-2.22L69.58,90.78a9.24,9.24,0,0,0,2.19-3.94,9.1,9.1,0,0,1,5.29-6.11l1-.42a9.16,9.16,0,0,0,3.19-2.23l15.62-17a14.33,14.33,0,0,0,3.73-7.87,17.36,17.36,0,0,0-.25-5.43l4.44,4.08v.07a21.32,21.32,0,0,1-.53,4.9,17.3,17.3,0,0,1-1.31,3.52,16.85,16.85,0,0,1-2.66,3.87l-15.62,17a9.11,9.11,0,0,1-2.52,1.92c-.53.27-1.1.49-1.66.73Z" style="fill:#564e57"/><path d="M112.32,36.13a1.3,1.3,0,0,1-1.82,0l-6-5.53-6-5.53a1.3,1.3,0,0,1-.14-1.82L103.14,18A1.29,1.29,0,0,1,105,18L117,29a1.28,1.28,0,0,1,.14,1.81l-4.84,5.29Z" style="fill:#e94544"/><path d="M117.16,30.84l-4.84,5.29a1.3,1.3,0,0,1-1.82,0L107.09,33a1.3,1.3,0,0,0,1.82,0l4.84-5.29a1.28,1.28,0,0,0-.14-1.81L117,29A1.28,1.28,0,0,1,117.16,30.84Z" style="fill:#d93331"/><path d="M71,38.06,99.93,64.57,84.49,81.4,55.59,54.88Z" style="fill:#e94544"/><path d="M96.52,61.44l3.41,3.13L84.49,81.4l-3.41-3.13Z" style="fill:#d93331"/></svg>