<svg id="ef14d1cd-294f-41d2-b2a8-e323bb04692b" data-name="Calque 1" xmlns="http://www.w3.org/2000/svg" viewBox="0 0 140.56 140.56"><path d="M111.73,42.92a6,6,0,0,0-3.19-5.32,6.06,6.06,0,1,0-8.22-8.22,6,6,0,0,0-10.65,0,6,6,0,0,0-10.65,0,6,6,0,0,0-10.64,0,6.07,6.07,0,1,0-8.22,8.22,6,6,0,0,0,0,10.65,6,6,0,0,0,0,10.65,6,6,0,0,0,0,10.65,6,6,0,0,0,0,10.64,6,6,0,0,0,0,10.65,6.06,6.06,0,1,0,8.22,8.22,6,6,0,0,0,10.64,0,6,6,0,0,0,10.65,0,6,6,0,0,0,10.65,0,6.06,6.06,0,1,0,8.22-8.22,6,6,0,0,0,0-10.65,6,6,0,0,0,0-10.64,6,6,0,0,0,0-10.65,6,6,0,0,0,0-10.65A6.05,6.05,0,0,0,111.73,42.92Z" style="fill:#d8ab8b"/><path id="b14e3c14-0c8b-48f8-83d2-a949597b4dcd" data-name="SVGCleanerId 12" d="M72.69,93.94l0,0h0a7,7,0,0,1-3.34,9.3,7.39,7.39,0,0,1-1.27.45h0a6.88,6.88,0,0,1-6.84,6.91,6.62,6.62,0,0,1-1.47-.16h0a6.77,6.77,0,0,1-9,3.26,6.27,6.27,0,0,1-1.37-.85h0a6.77,6.77,0,0,1-9.52-1,6.6,6.6,0,0,1-.85-1.36h0a6.86,6.86,0,0,1-8.15-5.28,6.53,6.53,0,0,1-.16-1.46v0h0a7,7,0,0,1-5.07-8.48A6.21,6.21,0,0,1,26.06,94h0l0,0a7,7,0,0,1-.9-9.91,6.38,6.38,0,0,1,.9-.9l0,0h0a7,7,0,0,1,3.34-9.29,6.58,6.58,0,0,1,1.26-.46h0a6.88,6.88,0,0,1,6.84-6.9A6.61,6.61,0,0,1,39,66.6h0a6.85,6.85,0,0,1,3.94-3.53,6.74,6.74,0,0,1,6.44,1.12h0a6.77,6.77,0,0,1,9.52,1.06,6.53,6.53,0,0,1,.85,1.35h0a6.87,6.87,0,0,1,8.16,5.27,6.15,6.15,0,0,1,.15,1.48h0a7,7,0,0,1,5.08,8.49,6.67,6.67,0,0,1-.46,1.27h0a7.05,7.05,0,0,1,.9,9.92A7.57,7.57,0,0,1,72.69,93.94Z" style="fill:#c7865c"/><path d="M72.27,36.72h0A1.77,1.77,0,0,1,74,38.49v.27a1.77,1.77,0,0,1-1.77,1.77H72a1.77,1.77,0,0,1-1.77-1.77h0A2,2,0,0,1,72.27,36.72Z" style="fill:#9f5628"/><path d="M84.48,36.45h0a1.77,1.77,0,0,1,1.77,1.77v.27a1.77,1.77,0,0,1-1.77,1.77h-.26a1.78,1.78,0,0,1-1.78-1.77h0A2,2,0,0,1,84.48,36.45Z" style="fill:#9f5628"/><path d="M96.65,36.72h0a1.77,1.77,0,0,1,1.77,1.77v.27a1.77,1.77,0,0,1-1.77,1.77h-.26a1.78,1.78,0,0,1-1.78-1.77h0A2,2,0,0,1,96.65,36.72Z" style="fill:#9f5628"/><path d="M72.09,52.61h0a1.78,1.78,0,0,1,1.77,1.78v.26a1.77,1.77,0,0,1-1.77,1.77h-.27a1.77,1.77,0,0,1-1.77-1.77h0A2,2,0,0,1,72.09,52.61Z" style="fill:#9f5628"/><path d="M84.3,52.35h0a1.77,1.77,0,0,1,1.77,1.77v.26a1.78,1.78,0,0,1-1.77,1.78H84a1.78,1.78,0,0,1-1.77-1.78h0A2,2,0,0,1,84.3,52.35Z" style="fill:#9f5628"/><path d="M96.47,52.61h0a1.78,1.78,0,0,1,1.77,1.78v.26a1.77,1.77,0,0,1-1.77,1.77H96.2a1.77,1.77,0,0,1-1.77-1.77h0A2,2,0,0,1,96.47,52.61Z" style="fill:#9f5628"/><path d="M72.33,68.51h0a1.78,1.78,0,0,1,1.78,1.77v.27a1.78,1.78,0,0,1-1.78,1.77h-.26a1.77,1.77,0,0,1-1.77-1.77h0A2,2,0,0,1,72.33,68.51Z" style="fill:#9f5628"/><path d="M84.55,68.24h0A1.77,1.77,0,0,1,86.32,70v.27a1.77,1.77,0,0,1-1.77,1.77h-.27a1.77,1.77,0,0,1-1.77-1.77h0A2,2,0,0,1,84.55,68.24Z" style="fill:#9f5628"/><path d="M96.72,68.51h0a1.77,1.77,0,0,1,1.77,1.77v.27a1.77,1.77,0,0,1-1.77,1.77h-.27a1.77,1.77,0,0,1-1.77-1.77h0A2,2,0,0,1,96.72,68.51Z" style="fill:#9f5628"/><path d="M84.53,85h0a1.78,1.78,0,0,1,1.77,1.78V87a1.78,1.78,0,0,1-1.77,1.78h-.27A1.78,1.78,0,0,1,82.49,87h0A2,2,0,0,1,84.53,85Z" style="fill:#9f5628"/><path d="M96.7,85.26h0A1.78,1.78,0,0,1,98.47,87v.26a1.77,1.77,0,0,1-1.77,1.77h-.27a1.77,1.77,0,0,1-1.77-1.77h0A2,2,0,0,1,96.7,85.26Z" style="fill:#9f5628"/><path d="M37.24,75.94h0A1.78,1.78,0,0,1,39,77.71V78a1.78,1.78,0,0,1-1.78,1.77H37A1.77,1.77,0,0,1,35.21,78h0A2,2,0,0,1,37.24,75.94Z" style="fill:#9f5628"/><path d="M49.46,75.67h0a1.77,1.77,0,0,1,1.77,1.77v.27a1.77,1.77,0,0,1-1.77,1.77h-.27a1.77,1.77,0,0,1-1.77-1.77h0A2,2,0,0,1,49.46,75.67Z" style="fill:#9f5628"/><path d="M61.63,75.94h0a1.77,1.77,0,0,1,1.77,1.77V78a1.77,1.77,0,0,1-1.77,1.77h-.27A1.77,1.77,0,0,1,59.59,78h0A2,2,0,0,1,61.63,75.94Z" style="fill:#9f5628"/><path d="M37.37,87.17h0a1.77,1.77,0,0,1,1.77,1.77v.27A1.77,1.77,0,0,1,37.37,91H37.1a1.77,1.77,0,0,1-1.77-1.77h0A2,2,0,0,1,37.37,87.17Z" style="fill:#9f5628"/><path d="M49.58,86.9h0a1.77,1.77,0,0,1,1.77,1.77v.27a1.77,1.77,0,0,1-1.77,1.77h-.27a1.77,1.77,0,0,1-1.77-1.77h0A2,2,0,0,1,49.58,86.9Z" style="fill:#9f5628"/><path d="M61.75,87.17h0a1.77,1.77,0,0,1,1.77,1.77v.27A1.77,1.77,0,0,1,61.75,91h-.27a1.77,1.77,0,0,1-1.77-1.77h0A2,2,0,0,1,61.75,87.17Z" style="fill:#9f5628"/><path d="M37.41,98.4h0a1.77,1.77,0,0,1,1.77,1.77v.27a1.77,1.77,0,0,1-1.77,1.77h-.27a1.77,1.77,0,0,1-1.77-1.77h0A2,2,0,0,1,37.41,98.4Z" style="fill:#9f5628"/><path d="M49.62,98.13h0A1.78,1.78,0,0,1,51.4,99.9v.27a1.78,1.78,0,0,1-1.78,1.77h-.26a1.77,1.77,0,0,1-1.77-1.77h0A2,2,0,0,1,49.62,98.13Z" style="fill:#9f5628"/><path d="M61.79,98.4h0a1.78,1.78,0,0,1,1.78,1.77v.27a1.78,1.78,0,0,1-1.78,1.77h-.26a1.77,1.77,0,0,1-1.77-1.77h0A2,2,0,0,1,61.79,98.4Z" style="fill:#9f5628"/></svg>