<svg id="ac3e4838-1c0c-4fd3-9919-20c444d55e20" data-name="Calque 1" xmlns="http://www.w3.org/2000/svg" viewBox="0 0 140.56 140.56"><path d="M37.84,78.12A14.77,14.77,0,0,0,23.09,92.88v6.45l8.76,6.81,8.76-6.81V78.12Z" style="fill:#fcdd2e"/><path d="M111.53,85.5h-11V57.73h11a5.64,5.64,0,0,1,5.63,5.63V79.87A5.64,5.64,0,0,1,111.53,85.5ZM106.09,80h5.44a.1.1,0,0,0,.09-.1V63.36a.09.09,0,0,0-.09-.09h-5.44Z" style="fill:#3072b8"/><path d="M61.82,49.53v49.8H93.7A12.4,12.4,0,0,0,106.09,87V49.53Z" style="fill:#67c6e4"/><path d="M84,49.53v49.8H93.7A12.4,12.4,0,0,0,106.09,87V49.53Z" style="fill:#69b1e2"/><path d="M80.22,78H77.45l.12,21.21,9.28,3.56,8.24-3.65,0-6.46A14.77,14.77,0,0,0,80.22,78Z" style="fill:#f7c201"/><path d="M67.54,35.7h5.53V44H67.54Z" style="fill:#e6f2fc"/><path d="M95.21,35.7h5.53V44H95.21Z" style="fill:#cde5f8"/><path d="M81.37,30.16h5.54V44H81.37Z" style="fill:#e6f2fc"/><path d="M84,30.16h3V44H84Z" style="fill:#cde5f8"/><path d="M42.22,72.71A7.23,7.23,0,0,0,35,80l.11,19.53,9.26,7.27,9.18-7.37-.14-26.75Z" style="fill:#f7c201"/><path d="M75.81,72.59H64.59V99.33l9.22,4.15L83,99.33V79.81A7.23,7.23,0,0,0,75.81,72.59Z" style="fill:#fcdd2e"/><path d="M62.34,66.13h-7c-4.2,0-7.37,3.35-7.37,7.79V99.33l10.86,7.33,10.86-7.33V73.51a7.39,7.39,0,0,0-7.37-7.38Z" style="fill:#fcdd2e"/><path d="M62.23,66.15l-3.49,0,.18,33.2,5.45,3.57,5.41-3.63-.14-25.82a7.38,7.38,0,0,0-7.41-7.34Z" style="fill:#f7c201"/><path d="M23.09,99.33h94.07V110.4H23.09Z" style="fill:#a97450"/><path d="M69.71,99.33V110.4h47.45V99.33H69.71Z" style="fill:#895243"/></svg>