<svg id="efc1e26a-8296-4ed7-8584-2b1f299b8e7f" data-name="Calque 1" xmlns="http://www.w3.org/2000/svg" viewBox="0 0 139.56 139.56"><path d="M63.48,37.39,51.05,44.56,39.27,24.15A7.17,7.17,0,1,1,51.69,17Z" style="fill:#ffde48"/><path d="M95.37,118.35H53a11.28,11.28,0,0,1-11.23-10.29L36.27,45.43a3.08,3.08,0,0,1,.79-2.35,3.12,3.12,0,0,1,2.27-1H109a3.08,3.08,0,0,1,2.26,1,3,3,0,0,1,.8,2.35l-5.49,62.63a11.28,11.28,0,0,1-11.24,10.29Z" style="fill:#f5f0eb"/><path d="M109,42.08H74.18v76.27H95.37a11.28,11.28,0,0,0,11.24-10.29l5.49-62.63a3,3,0,0,0-.8-2.35,3.08,3.08,0,0,0-2.26-1Z" style="fill:#eae0db"/><path d="M74.18,105.64a13.25,13.25,0,0,1-11.85-7.09L54.76,84.46A13.45,13.45,0,0,1,66.62,64.64H81.75A13.45,13.45,0,0,1,93.6,84.46L86,98.55a13.27,13.27,0,0,1-11.86,7.09Z" style="fill:#e14c4c"/><path d="M81.75,64.64H74.18v41A13.27,13.27,0,0,0,86,98.55L93.6,84.46A13.45,13.45,0,0,0,81.75,64.64Z" style="fill:#d14040"/><path d="M74.18,54.38a3.08,3.08,0,0,0-3.07,3.08V67.71h6.15V57.46A3.08,3.08,0,0,0,74.18,54.38Z" style="fill:#9ccc95"/><circle cx="68.03" cy="80.01" r="3.08" style="fill:#ffde48"/><circle cx="80.33" cy="80.01" r="3.08" style="fill:#edba06"/><circle cx="74.18" cy="89.61" r="3.08" style="fill:#ffde48"/><path d="M77.26,67.71V57.46a3.08,3.08,0,0,0-3.08-3.08V67.71Z" style="fill:#89c061"/><path d="M77.26,89.61a3.08,3.08,0,0,0-3.08-3.08v6.15A3.08,3.08,0,0,0,77.26,89.61Z" style="fill:#edba06"/><path d="M84.43,54.38a3.08,3.08,0,0,0-3.07,3.08,7.18,7.18,0,1,1-14.35,0,3.08,3.08,0,1,0-6.15,0,13.33,13.33,0,1,0,26.65,0A3.08,3.08,0,0,0,84.43,54.38Z" style="fill:#9ccc95"/><path d="M87.51,57.46a3.08,3.08,0,1,0-6.15,0,7.19,7.19,0,0,1-7.18,7.18v6.15A13.35,13.35,0,0,0,87.51,57.46Z" style="fill:#89c061"/><path d="M30.11,32.86V39a9.22,9.22,0,0,0,9.22,9.22H109A9.23,9.23,0,0,0,118.26,39V32.86Z" style="fill:#eae0db"/><path d="M74.18,48.23H109A9.23,9.23,0,0,0,118.26,39V32.86H74.18Z" style="fill:#dcc8be"/><path d="M121.34,35.93H27a3.08,3.08,0,1,1,0-6.15h94.31a3.08,3.08,0,0,1,0,6.15Z" style="fill:#f5f0eb"/><path d="M121.34,29.78H74.18v6.15h47.16a3.08,3.08,0,0,0,0-6.15Z" style="fill:#eae0db"/></svg>