<svg id="ea02579d-0242-4f6d-832f-4c109de55c17" data-name="Calque 1" xmlns="http://www.w3.org/2000/svg" viewBox="0 0 139.56 139.56"><path d="M30.71,20.19H76.43V31.62H30.71Z" style="fill:#cbe9f9"/><path d="M19.27,39.24,30.71,27.81H76.43L87.87,39.24v1.91H19.27Z" style="fill:#69b1e2"/><path d="M87.81,123.08H40.23V39.24H87.81l1,2.86a8.76,8.76,0,0,1,0,5.72,8.73,8.73,0,0,0,0,5.71,8.76,8.76,0,0,1,0,5.72,8.76,8.76,0,0,0,0,5.72,8.73,8.73,0,0,1,0,5.71l-1,2.86Z" style="fill:#69b1e2"/><path d="M68.81,81.16h2.7a6,6,0,0,0,5.89-4.83l.94-4.69-4.7.93a6,6,0,0,0-4.83,5.9Z" style="fill:#fcdd2e"/><path d="M65,69.73H62.3a6,6,0,0,1-5.89-4.83l-.94-4.7,4.7.94A6,6,0,0,1,65,67Z" style="fill:#fcdd2e"/><path d="M68.81,69.73h2.7A6,6,0,0,0,77.4,64.9l.94-4.7-4.7.94A6,6,0,0,0,68.81,67Z" style="fill:#fcdd2e"/><path d="M65,81.16H62.3a6,6,0,0,1-5.89-4.83l-.94-4.69,4.7.93A6,6,0,0,1,65,78.47Z" style="fill:#fcdd2e"/><path d="M65,92.59H62.3a6,6,0,0,1-5.89-4.82l-.94-4.7,4.7.94A6,6,0,0,1,65,89.9Z" style="fill:#fcdd2e"/><path d="M65,104H62.3a6,6,0,0,1-5.89-4.83l-.94-4.7,4.7.94A6,6,0,0,1,65,101.33Z" style="fill:#fcdd2e"/><path d="M66.91,60.2,64.7,58a5.74,5.74,0,0,1-.53-7.49l2.74-3.64,2.73,3.64A5.73,5.73,0,0,1,69.11,58Z" style="fill:#fcdd2e"/><path d="M66.91,92.59V88.78a9.52,9.52,0,0,1,9.52-9.52A9.53,9.53,0,0,1,86,69.73,5.72,5.72,0,0,1,91.68,64h2.26a9.18,9.18,0,0,1,9.17,9.18h0v.35H105a5.72,5.72,0,0,1,5.72,5.72v1.9a5.72,5.72,0,0,1,5.72,5.72v5.71Z" style="fill:#f3f0f3"/><path d="M110.73,81.16v-1.9A5.72,5.72,0,0,0,105,73.54h-1.9v-.35A9.18,9.18,0,0,0,93.94,64H91.68a5.79,5.79,0,0,0-2.36.51,9.18,9.18,0,0,1,6.17,8.67v.35h1.9a5.72,5.72,0,0,1,5.72,5.72v1.9a5.71,5.71,0,0,1,5.71,5.72v5.71h7.63V86.88A5.72,5.72,0,0,0,110.73,81.16Z" style="fill:#e2dee2"/><path d="M65,100.22h53.35v15.15a13.43,13.43,0,0,1-13.43,13.43H78.43A13.43,13.43,0,0,1,65,115.37V100.22Z" style="fill:#9f5628"/><path d="M110.73,100.22v11.34A13.42,13.42,0,0,1,97.3,125H70.81a13.34,13.34,0,0,1-1.89-.13,13.42,13.42,0,0,0,9.51,4h26.49a13.43,13.43,0,0,0,13.43-13.43V100.22Z" style="fill:#9f5628"/><path d="M61.19,90.69h61v11.43h-61Z" style="fill:#c7865c"/><path d="M122.16,102.12h-19l1.67-1.67a13.8,13.8,0,0,0,4-9.76h13.34Z" style="fill:#c17e4d"/><path d="M91.19,81.62h0a1.9,1.9,0,0,1,1.9,1.9h0a1.9,1.9,0,0,1-1.9,1.91h0a1.91,1.91,0,0,1-1.91-1.91h0A1.91,1.91,0,0,1,91.19,81.62Z" style="fill:#e2dee2"/><path d="M89.9,71.64h0a1.78,1.78,0,0,1,1.78,1.77v.26a1.78,1.78,0,0,1-1.78,1.78h-.26a1.78,1.78,0,0,1-1.77-1.78h0A2,2,0,0,1,89.9,71.64Z" style="fill:#e2dee2"/><path d="M78.94,83.93l.41-.2a1.89,1.89,0,0,1,2.55.85h0a1.9,1.9,0,0,1-.85,2.55l-.4.2a1.91,1.91,0,0,1-2.56-.85h0A1.9,1.9,0,0,1,78.94,83.93Z" style="fill:#e2dee2"/><path d="M101.51,83.24l.41-.19a2,2,0,0,1,2.55.81h0a1.77,1.77,0,0,1-.85,2.43l-.4.19a2,2,0,0,1-2.56-.81h0A1.77,1.77,0,0,1,101.51,83.24Z" style="fill:#e2dee2"/><path d="M42.14,123.08h-20A2.08,2.08,0,0,1,20.08,121a2.16,2.16,0,0,1,.1-.66l.71-2.1a2.28,2.28,0,0,0-.12-1.7,8,8,0,0,1-.44-6.15,8.09,8.09,0,0,0,0-5.1l-.21-.62a8.09,8.09,0,0,1,0-5.1l.21-.62a8.06,8.06,0,0,0,0-5.09l-.21-.62a8.09,8.09,0,0,1,0-5.1l.21-.62a8.09,8.09,0,0,0,0-5.1l-.21-.62a8.06,8.06,0,0,1,0-5.09l.21-.62a8.09,8.09,0,0,0,0-5.1l-.21-.62a8.06,8.06,0,0,1,0-5.09l.21-.62a8.09,8.09,0,0,0,0-5.1l-.21-.62a8.09,8.09,0,0,1,0-5.1l.21-.62a8.06,8.06,0,0,0,0-5.09l-.64-1.93a7.88,7.88,0,0,1-.42-2.55V39.24H42.14Z" style="fill:#67c6e4"/><path d="M30.71,27.81,42.14,39.24H19.27Z" style="fill:#67c6e4"/></svg>