<svg id="b95aecdc-a7fb-497b-ac9f-414697000d31" data-name="Calque 1" xmlns="http://www.w3.org/2000/svg" viewBox="0 0 139.56 139.56"><path d="M116.29,102.63a10.21,10.21,0,0,0-.92,1.07L98.82,87.15l-7.35,7.36L108,111.06a8.4,8.4,0,0,0-1.08.91,8.94,8.94,0,1,0,15.24,5.9,8.93,8.93,0,1,0-5.89-15.24Z" style="fill:#f3f0f3"/><path d="M130.93,112.18a8.93,8.93,0,0,0-14.74-3.36h0a1.37,1.37,0,0,1-2,0L95.67,90.3l3.15-3.15,16.55,16.55a8.51,8.51,0,0,1,.92-1.07,8.93,8.93,0,0,1,14.64,9.55Z" style="fill:#e2dee2"/><path d="M76.4,16.37,48.57,44.2l-.06,0L20.69,72.08s22.45,25.53,51.42,28.33a51,51,0,0,0,5.79.24,119.17,119.17,0,0,1,12.39.2c1.12.1,2.23.24,3.34.39A25.84,25.84,0,0,1,99.92,103l7.37-7.34a26,26,0,0,1-1.73-6.31c-.16-1.11-.29-2.22-.39-3.34a113.7,113.7,0,0,1-.2-12.38,53.18,53.18,0,0,0-.24-5.79c-2.8-29-28.33-51.43-28.33-51.43Z" style="fill:#e8b787"/><path d="M107.29,95.62l-3.15,3.15a20.74,20.74,0,0,0-1.71-4.07,18.58,18.58,0,0,1-2.27-7.13c-.16-1.23-.25-2.46-.31-3.69-.1-2.36-.06-4.73,0-7.09,0-5.22.1-10.54-1.12-15.64a69.27,69.27,0,0,0-3.12-9.76,86.09,86.09,0,0,0-9.11-16.7c-.57-.82-8.65-11-12.9-15.47l2.85-2.85s25.52,22.45,28.33,51.43a53.1,53.1,0,0,1,.24,5.78,113.84,113.84,0,0,0,.2,12.39c.1,1.12.23,2.23.39,3.34a26,26,0,0,0,1.73,6.31Z" style="fill:#c86d36"/><ellipse cx="48.54" cy="44.23" rx="39.42" ry="21.85" transform="translate(-17.06 47.27) rotate(-45)" style="fill:#e8ae8c"/><path d="M64,59.68C52.87,70.8,39.66,76.79,30,76.05,39,75,50,69.27,59.51,59.78c15.4-15.4,21-34.8,12.42-43.33a14.3,14.3,0,0,0-9.3-3.94c5.64-.64,10.52.56,13.79,3.83C85,24.88,79.39,44.28,64,59.68Z" style="fill:#e19a74"/><ellipse cx="48.54" cy="44.23" rx="31.15" ry="15.48" transform="translate(-17.06 47.27) rotate(-45)" style="fill:#9f5628"/><ellipse cx="57.43" cy="35.46" rx="8.92" ry="4.64" transform="translate(-7.52 53.81) rotate(-47.47)" style="fill:#ecbba4"/><path d="M60.84,38.59c-3.33,3.63-7.56,5.17-9.45,3.44a3.1,3.1,0,0,1-.9-2.28,12.26,12.26,0,0,0,6.69-4.09c2.29-2.5,3.56-5.35,3.51-7.44a3.27,3.27,0,0,1,2.76.66c1.89,1.73.72,6.08-2.61,9.71Z" style="fill:#e8ae8c"/></svg>