<svg id="b0692ef0-8ffa-43e3-90f4-0d762edc50be" data-name="Calque 1" xmlns="http://www.w3.org/2000/svg" viewBox="0 0 140.56 140.56"><path d="M58.94,50.92A10.88,10.88,0,0,0,48.08,61.79V66.2h6.77A10.87,10.87,0,0,0,65.71,55.34V50.92Z" style="fill:#9cc97c"/><path d="M30.79,60.33H18v4.85A12.27,12.27,0,0,0,30.25,77.43H43V72.57A12.26,12.26,0,0,0,30.79,60.33Z" style="fill:#9cc97c"/><path d="M18,60.33v4.85A12.27,12.27,0,0,0,30.25,77.43H43Z" style="fill:#89c061"/><path d="M48.08,66.2h6.77A10.87,10.87,0,0,0,65.71,55.34V50.92Z" style="fill:#89c061"/><path d="M71.12,31.19v5.93H76v15.2L69.41,64.5c-.61,1.14-1.18,2.29-1.72,3.45H85.46l2.19-16.76-2.19-20Z" style="fill:#fef5f5"/><path d="M107.18,35.92H96.29V31.19H85.46V68H104.6c-.54-1.17-1.12-2.32-1.73-3.45L96.29,52.32V41.85h10.89a6,6,0,0,1,5.95,6v2.51a5.45,5.45,0,0,1-5.45,5.45v5.94a11.39,11.39,0,0,0,11.38-11.39V47.81a11.9,11.9,0,0,0-11.88-11.89Z" style="fill:#ecebf0"/><path d="M67.69,68A62.21,62.21,0,0,0,62.25,87.6l1,19.38H85.46L91,87,85.46,68Z" style="fill:#f7c201"/><path d="M76.64,19.41l2,11.78,6.87,2.19v-14Z" style="fill:#c9895f"/><path d="M94.27,19.41H85.46v14l6.87-2.19Z" style="fill:#a97450"/><path d="M78.59,31.19l1,6h5.89l2.19-2.6-2.19-3.38Z" style="fill:#a97450"/><path d="M92.33,31.19H85.46v6h5.88Z" style="fill:#895243"/><path d="M110.38,94.2A62.73,62.73,0,0,0,104.6,68H85.46v39h24.92Z" style="fill:#fcdd2e"/><path d="M45.75,53.5a17.94,17.94,0,0,0-2.2-2.67l-5.16-5.16L34.2,49.86,39.36,55a11.75,11.75,0,0,1,3.46,8.36V82.88h5.93V63.39a17.64,17.64,0,0,0-3-9.89Z" style="fill:#c9895f"/><path d="M45.75,81.79a10,10,0,0,0-10,10V97a10,10,0,0,0,10,10l1.51-13Z" style="fill:#9cc97c"/><path d="M45.75,81.79V107a10,10,0,0,0,10-10V91.79a10,10,0,0,0-10-10Z" style="fill:#89c061"/><path d="M57.69,87a10,10,0,0,0,0,20h2.68l3-10-3-10Z" style="fill:#9cc97c"/><path d="M62.88,87H60.37v20h2.51a10,10,0,0,0,0-20Z" style="fill:#89c061"/></svg>