<svg id="Calque_1" data-name="Calque 1" xmlns="http://www.w3.org/2000/svg" viewBox="0 0 139.56 139.56"><defs><style>.cls-1{fill:#f7c201;}.cls-2{fill:#e2dee2;}.cls-3{fill:#f3f0f3;}.cls-4{fill:#fcdd2e;}</style></defs><path class="cls-1" d="M89.49,34.35v70.9h-50V34.35h0a6.58,6.58,0,0,0,3.33.9A6.4,6.4,0,0,0,44.63,35a6.68,6.68,0,0,0,6.52,5.29,6.4,6.4,0,0,0,.88-.09,6.6,6.6,0,0,0,10.79,1.12,6.62,6.62,0,0,0,5,2.3l.23,0a6.6,6.6,0,0,0,1.27,2.52,6.67,6.67,0,1,0,10.33,0,6.58,6.58,0,0,0,1.5-4.17,6.81,6.81,0,0,0-.44-2.35A6.66,6.66,0,0,0,84.34,35a6.4,6.4,0,0,0,1.81.29,6.62,6.62,0,0,0,3.34-.9Z"/><path class="cls-2" d="M89.49,115.25h-50a5,5,0,0,1,0-10h50a5,5,0,1,1,0,10Z"/><path class="cls-2" d="M89.49,83.58h8.33a3.33,3.33,0,0,0,3.33-3.33V51.91a3.33,3.33,0,0,0-3.33-3.33H89.49V41.91h8.33a10,10,0,0,1,10,10V80.25a10,10,0,0,1-10,10H89.49Z"/><path class="cls-3" d="M87.33,22a6.58,6.58,0,0,0-3.73-1.71,6.64,6.64,0,0,0-5.78-3.41,6.57,6.57,0,0,0-3.17.84,6.6,6.6,0,0,0-5.16-2.5,6.66,6.66,0,0,0-3.34.92,6.52,6.52,0,0,0-7.5.58,6.56,6.56,0,0,0-4.16-1.5,6.63,6.63,0,0,0-5.79,3.42,6.4,6.4,0,0,0-.88-.09A6.65,6.65,0,0,0,42,22a6.65,6.65,0,0,0,.79,13.26A6.4,6.4,0,0,0,44.63,35a6.68,6.68,0,0,0,6.52,5.29,6.4,6.4,0,0,0,.88-.09,6.6,6.6,0,0,0,10.79,1.12,6.62,6.62,0,0,0,5,2.3l.23,0a6.6,6.6,0,0,0,1.27,2.52,6.67,6.67,0,1,0,10.33,0,6.58,6.58,0,0,0,1.5-4.17,6.81,6.81,0,0,0-.44-2.35A6.66,6.66,0,0,0,84.34,35a6.4,6.4,0,0,0,1.81.29A6.66,6.66,0,0,0,87.33,22Z"/><path class="cls-4" d="M49.49,98.58a3.33,3.33,0,0,1-3.34-3.33v-30a3.34,3.34,0,1,1,6.67,0v30A3.33,3.33,0,0,1,49.49,98.58Z"/><path class="cls-4" d="M64.49,98.58a3.33,3.33,0,0,1-3.34-3.33v-30a3.34,3.34,0,1,1,6.67,0v30A3.33,3.33,0,0,1,64.49,98.58Z"/><path class="cls-4" d="M79.49,98.58a3.33,3.33,0,0,1-3.34-3.33v-30a3.34,3.34,0,1,1,6.67,0v30A3.33,3.33,0,0,1,79.49,98.58Z"/></svg>