<?xml version="1.0" encoding="UTF-8" standalone="no"?>
<!-- Created with Inkscape (http://www.inkscape.org/) -->
<svg xmlnsDc="http://purl.org/dc/elements/1.1/" xmlnsCc="http://web.resource.org/cc/" xmlnsRdf="http://www.w3.org/1999/02/22-rdf-syntax-ns#" xmlnsSvg="http://www.w3.org/2000/svg" xmlns="http://www.w3.org/2000/svg" xmlnsXlink="http://www.w3.org/1999/xlink" xmlnsSodipodi="http://sodipodi.sourceforge.net/DTD/sodipodi-0.dtd" xmlnsInkscape="http://www.inkscape.org/namespaces/inkscape" width="252" height="199" id="svg2" sodipodiVersion="0.32" inkscapeVersion="0.45.1" version="1.0" sodipodiDocbase="/home/azatoth/img" sodipodiDocname="Question_book.svg" inkscapeOutput_extension="org.inkscape.output.svg.inkscape">
  <defs id="defs4">
    <linearGradient id="linearGradient3212">
      <stop style="stop-color:#fffbf0;stop-opacity:1;" offset="0" id="stop3214"/>
      <stop style="stop-color:#fff3b9;stop-opacity:1;" offset="1" id="stop3216"/>
    </linearGradient>
    <linearGradient inkscapeCollect="always" xlinkHref="#linearGradient3212" id="linearGradient3218" x1="141.47234" y1="457.53752" x2="380.66001" y2="457.53752" gradientUnits="userSpaceOnUse"/>
  </defs>
  <sodipodiNamedview id="base" pagecolor="#ffffff" bordercolor="#666666" borderopacity="1.0" gridtolerance="10000" guidetolerance="10" objecttolerance="10" inkscapePageopacity="0.0" inkscapePageshadow="2" inkscapeZoom="2.8" inkscapeCx="143.1588" inkscapeCy="123.74805" inkscapeDocument-units="px" inkscapeCurrent-layer="layer1" width="252px" height="199px" inkscapeWindow-width="1600" inkscapeWindow-height="1103" inkscapeWindow-x="0" inkscapeWindow-y="27"/>
  <metadata id="metadata7">
    <rdfRDF>
      <ccWork rdfAbout="">
        <dcFormat>image/svg+xml</dcFormat>
        <dcType rdfResource="http://purl.org/dc/dcmitype/StillImage"/>
      </ccWork>
    </rdfRDF>
  </metadata>
  <g inkscapeLabel="Layer 1" inkscapeGroupmode="layer" id="layer1" transform="translate(-135.06609,-358.03129)">
    <path style="opacity:1;fill:url(#linearGradient3218);fill-opacity:1.0;fill-rule:evenodd;stroke:#2b2b2b;stroke-width:0;stroke-linecap:butt;stroke-linejoin:round;stroke-miterlimit:4;stroke-dasharray:none;stroke-dashoffset:0;stroke-opacity:1" d="M 294.37859,365.78129 C 297.01493,365.78136 301.20791,370.34795 338.06609,408.00004 L 368.19109,438.75004 L 368.19109,443.18754 C 368.19108,447.18297 368.77174,448.30644 374.15984,454.43754 C 380.06987,461.16256 380.14267,461.32181 380.15984,467.37504 C 380.17037,471.09202 379.69934,473.8883 378.94109,474.50004 C 378.25358,475.0547 372.96609,476.28052 367.19109,477.21879 C 361.41608,478.15707 344.44034,481.36937 329.47234,484.34379 C 314.50434,487.3182 302.01101,489.75004 301.72234,489.75004 C 301.43366,489.75004 298.73038,491.99469 295.72234,494.71879 C 287.40884,502.24753 285.09804,503.18996 274.62859,503.34379 L 265.53484,503.46879 L 251.22234,511.18754 C 234.43589,520.23362 220.33376,528.85348 203.69109,540.21879 C 188.7199,550.44264 189.61037,549.9743 188.40984,548.50004 C 187.85492,547.8186 185.35431,542.30004 182.84734,536.25004 C 173.21101,512.99491 165.05813,493.22181 153.72234,465.50004 L 141.97234,436.71879 L 143.56609,433.34379 C 144.45149,431.47795 145.19109,428.86084 145.19109,427.53129 C 145.19109,426.20174 145.88054,422.80344 146.72234,419.96879 C 147.86373,416.1253 149.19858,414.09233 151.97234,412.03129 C 154.01804,410.51123 159.96609,405.29123 165.19109,400.40629 C 181.93974,384.74771 193.08141,378.75004 205.50359,378.75004 C 210.93638,378.75004 212.46119,379.16193 215.78484,381.59379 C 217.92986,383.16327 220.54959,385.41327 221.59734,386.59379 C 224.34271,389.68707 225.67188,389.28921 228.50359,384.50004 C 232.0432,378.51362 237.82754,373.23034 243.65984,370.65629 C 247.97594,368.75141 251.34915,368.34481 268.65984,367.62504 C 279.66572,367.16741 290.35403,366.4991 292.40984,366.15629 C 293.23341,366.01896 293.7702,365.78127 294.37859,365.78129 z " id="path2239"/>
    <path style="fill:#845507;fill-opacity:1" d="M 159.3125 7.75 C 158.70411 7.7499842 158.16732 7.9876656 157.34375 8.125 C 155.28794 8.46781 144.59964 9.1361196 133.59375 9.59375 C 116.28306 10.31352 112.90985 10.72012 108.59375 12.625 C 102.76145 15.19905 96.977107 20.48233 93.4375 26.46875 C 90.60579 31.25792 89.276621 31.68703 86.53125 28.59375 C 85.4835 27.41323 82.863772 25.16323 80.71875 23.59375 C 77.3951 21.16189 75.870291 20.71875 70.4375 20.71875 C 58.01532 20.71875 46.873651 26.71642 30.125 42.375 C 24.9 47.25994 18.951951 52.511191 16.90625 54.03125 C 14.13249 56.09229 12.79764 58.09401 11.65625 61.9375 C 10.81445 64.77215 10.125 68.170453 10.125 69.5 C 10.125 70.82955 9.3854001 73.446658 8.5 75.3125 L 6.90625 78.71875 L 18.65625 107.46875 C 29.99204 135.19052 38.144918 154.96362 47.78125 178.21875 C 50.28822 184.26875 52.788828 189.78731 53.34375 190.46875 C 54.54428 191.94301 53.653813 192.41136 68.625 182.1875 C 85.26767 170.82219 99.369798 162.20234 116.15625 153.15625 L 130.46875 145.4375 L 139.5625 145.3125 C 150.03195 145.15867 152.34275 144.21624 160.65625 136.6875 C 163.66429 133.9634 166.36757 131.71875 166.65625 131.71875 C 166.94492 131.71875 179.43825 129.28691 194.40625 126.3125 C 209.37425 123.33808 226.34999 120.15703 232.125 119.21875 C 237.9 118.28048 243.18749 117.05466 243.875 116.5 C 244.63325 115.88826 245.10428 113.06073 245.09375 109.34375 C 245.07658 103.29052 245.00378 103.13127 239.09375 96.40625 C 233.70565 90.27515 233.12499 89.182928 233.125 85.1875 L 233.125 80.75 L 203 49.96875 C 166.14182 12.316663 161.94884 7.7500686 159.3125 7.75 z M 157.28125 12.28125 C 158.56518 11.72509 166.41625 19.127919 191.28125 44.25 C 209.06307 62.21566 223.76571 77.505177 223.9375 78.25 C 224.32414 79.92637 222.5248 80.237687 200.03125 82.21875 C 182.98779 83.7198 171.10941 86.134897 164.84375 89.375 C 160.42345 91.66083 152.39914 99.439487 149.90625 103.875 C 148.71996 105.98572 147.27615 107.71875 146.6875 107.71875 C 145.42115 107.71875 135.8163 94.620701 110.125 57.8125 C 106.55 52.69056 101.4875 45.554599 98.875 41.96875 C 96.2625 38.3829 94.125003 34.93465 94.125 34.3125 C 94.125 32.8697 98.605771 26.066741 102 22.375 C 108.00573 15.84285 112.81941 14.63226 136.125 13.75 C 146.85 13.34399 156.36307 12.67898 157.28125 12.28125 z M 70 24.875 C 72.108342 24.837792 74.032385 25.13261 75.65625 25.75 C 80.25866 27.49984 91.05214 38.800452 98.53125 49.71875 C 102.48716 55.49375 110.61674 67.193748 116.59375 75.71875 C 122.57076 84.24375 129.89237 94.716327 132.875 99 C 135.95561 103.42435 138.06858 107.41976 137.75 108.25 C 137.34234 109.31233 135.49208 109.71875 131.03125 109.71875 C 115.63464 109.71875 100.03393 117.34978 80.34375 134.5 C 76.33977 137.98748 70.118889 143.06577 66.53125 145.78125 C 62.9436 148.49673 59.636491 150.71875 59.1875 150.71875 C 58.23128 150.71875 57.923688 150.01677 36.46875 99.375 C 27.41476 78.00417 20.14439 59.74671 20.3125 58.8125 C 20.6967 56.6774 40.305521 38.624589 48.3125 33.03125 C 55.613142 27.931325 63.674973 24.986624 70 24.875 z M 16.03125 64.75 C 16.322358 64.708578 16.65555 64.887456 17.03125 65.28125 C 17.52099 65.79458 26.455699 86.468748 36.875 111.21875 L 55.8125 156.21875 L 55.34375 162.96875 C 54.87385 169.74935 53.9901 171.21792 52.28125 167.96875 C 51.35262 166.20306 39.473601 138.23313 22.90625 98.78125 C 14.41896 78.57047 13.91687 77.032017 14.3125 71.5625 C 14.640947 67.02167 15.157927 64.874266 16.03125 64.75 z M 221.34375 86.15625 C 228.67081 86.019996 229.125 87.290411 229.125 91.8125 C 229.125 93.91809 229.6118 97.951132 230.21875 100.78125 C 231.01061 104.47355 231.02685 106.22315 230.25 107 C 229.61538 107.63462 221.58493 108.41606 210.875 108.875 C 178.68226 110.25452 174.48613 111.31503 165.3125 120.4375 C 162.38913 123.34457 159.67479 125.71875 159.28125 125.71875 C 158.8877 125.71875 158.04595 124.35105 157.40625 122.65625 C 156.37349 119.92016 155.82868 119.60706 152.71875 119.875 C 150.79238 120.04097 148.93356 119.9023 148.59375 119.5625 C 147.52242 118.49116 154.73915 105.39277 158.5625 101.46875 C 166.89343 92.91845 181.99884 88.697609 211.46875 86.6875 C 215.6769 86.400468 218.9014 86.201668 221.34375 86.15625 z M 132.96875 114.53125 C 137.00514 114.51381 140.72064 114.93939 141.25 115.46875 C 141.86665 116.0854 141.63362 117.91681 140.5625 120.59375 C 139.643 122.89181 138.37126 127.35381 137.75 130.5 L 136.625 136.21875 L 128.625 136.84375 C 119.81378 137.53263 113.59503 139.59817 103.65625 145.15625 C 96.83981 148.96822 78.077853 162.74202 67.625 171.59375 C 59.54735 178.43413 58.659099 178.34008 59.46875 170.59375 C 59.8221 167.21307 60.124999 162.71726 60.125 160.625 C 60.125 156.99535 60.549213 156.51629 69.375 149.875 C 74.4625 146.04673 83.125003 139.239 88.625 134.75 C 105.91009 120.64222 119.16586 114.59087 132.96875 114.53125 z " id="path2176" transform="translate(135.06609,358.03129)"/>
    <path id="path3267" style="fill:#cc3602;fill-opacity:1;fill-rule:evenodd;stroke:#2b2b2b;stroke-width:0;stroke-linecap:butt;stroke-linejoin:round;stroke-miterlimit:4;stroke-dashoffset:0;stroke-opacity:1" d="M 284.82948,380.89736 C 277.83858,380.89736 275.86281,381.31371 270.07948,384.05361 C 258.68939,389.44976 250.26698,398.9837 250.26698,406.42861 C 250.26698,413.36319 255.54216,418.39737 262.79823,418.39736 C 270.68516,418.39736 275.92071,411.99164 271.17323,408.14736 C 269.16385,406.52027 267.86908,406.30969 262.67323,406.86611 C 255.78288,407.60401 255.00339,407.00883 256.39198,401.83486 C 257.57171,397.43911 264.69159,390.80255 272.23573,387.08486 C 284.51776,381.03239 295.26697,383.50239 295.26698,392.36611 C 295.26698,394.35352 293.87042,399.9684 292.17323,404.83486 C 288.66601,414.89139 288.81051,418.51555 292.89198,423.36611 C 294.29399,425.0323 295.76379,426.39736 296.17323,426.39736 C 296.58267,426.39736 296.93491,424.48486 296.95448,422.14736 C 296.97673,419.48936 298.37105,414.84573 300.64198,409.74111 C 304.7943,400.40746 305.22431,395.17622 302.32948,389.61611 C 301.26706,387.57552 298.7012,384.77236 296.64198,383.39736 C 293.42045,381.24624 291.77701,380.89736 284.82948,380.89736 z M 306.86073,427.39736 C 303.05269,427.39736 297.73678,434.55468 299.92323,436.74111 C 301.25956,438.07745 303.162,437.34607 306.17323,434.33486 C 309.96831,430.53978 310.29083,427.39736 306.86073,427.39736 z "/>
  </g>
</svg>