<svg xmlns="http://www.w3.org/2000/svg" viewBox="0 0 512 512"><style>.a{fill:#F95428;}.b{fill:#F7B239;}.c{fill:#E09B2D;}.d{fill:#2BA5F7;}.e{fill:#FFF;}.f{fill:#333;}</style><polygon points="186.3 406.2 186.3 466.4 143.1 443.2 99.9 466.4 99.9 406.2 99.9 373.8 99.9 333 186.3 333 186.3 373.9 " class="a"/><path d="M455.2 333c1.6 14 5.3 27.8 11 40.9H186.3V333H99.9v40.8c-9.6-0.5-18.7-3.3-26.7-8.1 -8.8-5.2-16.2-12.8-21.3-22.1 -4.7-8.6-7-18.1-7-27.6 0-9.5 2.3-19 7-27.6 0.1-0.3 0.3-0.5 0.4-0.8 10.2-18.2 29.5-29.5 50.4-29.5H466.2c-4.1 9.6-7.2 19.5-9.2 29.5 -0.7 3.8-1.4 7.6-1.8 11.4 -0.7 5.6-1 11.3-1 17C454.2 321.7 454.6 327.3 455.2 333z" class="b"/><path d="M56.8 152.7c0.7-5.6 1-11.3 1-17 0-5.7-0.3-11.3-1-17 -1.6-14-5.3-27.8-11-40.9h174.6 188.8c21.2 0 40.7 11.6 50.9 30.3 4.7 8.6 7 18.1 7 27.6 0 9.5-2.3 19-7 27.6 -5.1 9.3-12.5 16.9-21.3 22.1 -8.8 5.2-19 8.1-29.6 8.1H220.4 45.8C51.5 180.4 55.1 166.7 56.8 152.7z" class="b"/><path d="M460.1 108.1c-10.1-18.7-29.6-30.3-50.9-30.3h-48.4c21.2 0 40.7 11.6 50.9 30.3 4.7 8.6 7 18.1 7 27.6 0 9.5-2.3 19-7 27.6 -5.1 9.3-12.5 16.9-21.3 22.1 -8.8 5.2-19 8.1-29.6 8.1h48.4c10.6 0 20.8-2.9 29.6-8.1 8.8-5.2 16.2-12.8 21.3-22.1 4.7-8.6 7-18.1 7-27.6C467 126.2 464.7 116.7 460.1 108.1z" class="c"/><path d="M497.6 378.6c2.9 2.9 4.7 7 4.7 11.4 0 8.9-7.2 16.1-16.1 16.1H186.3v-32.3h105.4H466.2h19.9C490.6 373.9 494.7 375.7 497.6 378.6z" class="d"/><path d="M497.6 230.6c2.9 2.9 4.7 7 4.7 11.4 0 8.9-7.2 16.1-16.1 16.1H466.2 291.6 102.8c-21.2 0-40.8 11.6-50.9 30.3 -4.7 8.6-7 18.1-7 27.6 0 9.5 2.3 19 7 27.6 5 9.3 12.5 16.9 21.3 22.1 8 4.8 17.1 7.6 26.7 8.1v32.4h-0.1c-24.9 0-47.4-10.1-63.7-26.4 -16.3-16.3-26.4-38.8-26.4-63.7 0-49.8 40.4-90.2 90.2-90.2h312.3 74C490.6 225.9 494.7 227.7 497.6 230.6z" class="d"/><path d="M412.2 45.6c49.8 0 90.1 40.4 90.1 90.2 0 24.9-10.1 47.4-26.4 63.7 -16.3 16.3-38.9 26.4-63.7 26.4H99.8h-74c-8.9 0-16.1-7.2-16.1-16.1 0-4.5 1.8-8.5 4.7-11.4s7-4.7 11.4-4.7h19.9 174.6 188.8c10.6 0 20.8-2.9 29.6-8.1 8.8-5.2 16.2-12.8 21.3-22.1 4.7-8.6 7-18.1 7-27.6 0-9.5-2.3-19-7-27.6 -10.1-18.7-29.6-30.3-50.9-30.3H220.4 45.8 25.8c-8.9 0-16.1-7.2-16.1-16.1 0-4.5 1.8-8.5 4.7-11.4 2.9-2.9 7-4.7 11.4-4.7C25.8 45.6 412.2 45.6 412.2 45.6z" class="a"/><path d="M466.2 258.2c-4.1 9.6-7.2 19.5-9.2 29.5H52.4c10.2-18.2 29.5-29.5 50.4-29.5H466.2z" class="c"/><path d="M45.8 77.9c4.1 9.6 7.2 19.5 9.2 29.5h404.6c-10.2-18.2-29.5-29.5-50.4-29.5H45.8z" class="c"/><path d="M99.9 333v40.8c-9.6-0.5-18.7-3.3-26.7-8.1 -8.8-5.2-16.2-12.8-21.3-22.1 -1.9-3.4-3.3-7-4.4-10.6L99.9 333 99.9 333z" class="c"/><path d="M157.4 425.2c-5.3 0-9.7-4.3-9.7-9.7v-24.5c0-5.3 4.3-9.7 9.7-9.7s9.7 4.3 9.7 9.7v24.5C167.1 420.9 162.7 425.2 157.4 425.2z" class="e"/><circle cx="157.4" cy="362.9" r="9.7" class="e"/><path d="M472.8 267.8h13.4c14.2 0 25.8-11.6 25.8-25.8 0-6.9-2.7-13.4-7.6-18.3 -4.9-4.9-11.4-7.5-18.2-7.5h-15C495.9 198 512 168.7 512 135.7c0-55-44.8-99.8-99.8-99.8H25.8c-14.2 0-25.8 11.6-25.8 25.8S11.6 87.5 25.8 87.5H39.2c11.7 30.9 11.7 65.4 0 96.4H25.8c-14.2 0-25.8 11.6-25.8 25.8s11.6 25.8 25.8 25.8h15C16.1 253.8 0 283 0 316c0 26.6 10.4 51.7 29.2 70.6 16.6 16.6 37.9 26.6 61 28.8v51c0 3.4 1.8 6.6 4.7 8.3 2.9 1.7 6.6 1.8 9.6 0.2l38.6-20.8 38.6 20.8c1.4 0.8 3 1.2 4.6 1.2 1.7 0 3.4-0.5 5-1.4 2.9-1.7 4.7-4.9 4.7-8.3v-50.6h290.2c14.2 0 25.8-11.6 25.8-25.8 0-6.9-2.7-13.4-7.6-18.3 -4.9-4.9-11.4-7.5-18.2-7.5h-13.4c-4-10.4-6.6-21.3-7.9-32.4 -0.6-5.2-0.9-10.5-0.9-15.8s0.3-10.6 0.9-15.8C466.2 289.1 468.8 278.3 472.8 267.8zM65.1 162.4h99.4c5.3 0 9.7-4.3 9.7-9.7S169.8 143 164.5 143H67.2c0.2-4.8 0.2-9.7 0-14.5h48c5.3 0 9.7-4.3 9.7-9.7s-4.3-9.7-9.7-9.7H65.1c-1.3-7.3-3-14.5-5.3-21.5h349.4c17.7 0 33.9 9.7 42.4 25.2 7.8 14.4 7.8 31.5 0 45.9 -8.4 15.6-24.7 25.2-42.4 25.2H59.8C62.1 176.8 63.8 169.6 65.1 162.4zM25.8 216.2c-3.6 0-6.5-2.9-6.5-6.5s2.9-6.5 6.5-6.5h383.4c24.8 0 47.6-13.5 59.4-35.4 10.9-20.2 10.9-44.2 0-64.4 -11.8-21.8-34.6-35.4-59.4-35.4H45.8 25.8c-3.6 0-6.5-2.9-6.5-6.5s2.9-6.5 6.5-6.5h386.3c44.4 0 80.5 36.1 80.5 80.5 0 44.4-36.1 80.4-80.4 80.5H25.8zM42.9 372.9c-15.2-15.2-23.6-35.4-23.6-56.9 0-44.4 36.1-80.4 80.4-80.5h312.4c0 0 0 0 0.1 0h74c1.7 0 3.4 0.7 4.6 1.9 1.2 1.2 1.9 2.9 1.9 4.6 0 3.6-2.9 6.5-6.5 6.5H102.8c-24.8 0-47.6 13.6-59.4 35.4 -5.3 9.8-8.2 21-8.2 32.2 0 11.2 2.8 22.3 8.2 32.2 5.8 10.7 14.4 19.6 24.8 25.8 6.8 4 14.2 6.8 22 8.3v13.5C72.4 393.8 55.8 385.8 42.9 372.9zM176.6 450.2l-28.9-15.6c-1.4-0.8-3-1.2-4.6-1.2s-3.2 0.4-4.6 1.2l-28.9 15.6V342.7h67V450.2zM490.7 385.5c1.2 1.2 1.9 2.8 1.9 4.6 0 3.6-2.9 6.5-6.5 6.5H196v-12.9h290.2C487.9 383.6 489.5 384.2 490.7 385.5zM196 364.2v-21.5h31.6c5.3 0 9.7-4.3 9.7-9.7s-4.3-9.7-9.7-9.7h-41.3H99.9c-5.3 0-9.7 4.3-9.7 9.7v29.5c-4.2-1.1-8.3-2.8-12-5.1 -7.5-4.4-13.6-10.8-17.7-18.4 -3.8-7-5.8-15-5.8-23 0-8 2-15.9 5.8-23 8.4-15.6 24.7-25.2 42.4-25.2h349.4c-2.3 7-4.1 14.2-5.3 21.5h-50c-5.3 0-9.7 4.3-9.7 9.7 0 5.3 4.3 9.7 9.7 9.7h47.9c-0.1 2.4-0.2 4.9-0.2 7.3s0.1 4.8 0.2 7.3h-97.2c-5.3 0-9.7 4.3-9.7 9.7s4.3 9.7 9.7 9.7h99.3c1.3 7.3 3 14.5 5.3 21.5L196 364.2 196 364.2z" class="f"/><circle cx="198" cy="152.7" r="9.7" class="f"/></svg>
