<svg id="Calque_1" data-name="Calque 1" xmlns="http://www.w3.org/2000/svg" viewBox="0 0 140.56 140.56"><defs><style>.cls-1{fill:#e8907a;}.cls-2{fill:#b57160;}.cls-3{fill:#dcedfb;}.cls-4{fill:#b8dbf5;}.cls-5{fill:#68c6e4;}</style></defs><path class="cls-1" d="M124.89,36h-5.13v67.3s-6.9,2-23.2-2.9A26.44,26.44,0,0,0,73.16,104c-.89.63-2,1.67-3,1.67H70c-1.09,0-2.15-1-3-1.67a26.44,26.44,0,0,0-23.4-3.64c-16.3,4.91-23.2,2.9-23.2,2.9V36H15.21a2.49,2.49,0,0,0-2.5,2.49v70.18a2.49,2.49,0,0,0,2.5,2.49H60.05a3.42,3.42,0,0,1,3.11,1.94,7.62,7.62,0,0,0,13.78,0,3.42,3.42,0,0,1,3.11-1.94h44.84a2.49,2.49,0,0,0,2.5-2.49V38.47a2.49,2.49,0,0,0-2.5-2.49Z"/><path class="cls-2" d="M25.48,108.65v-5a18.7,18.7,0,0,1-5.14-.4V36H15.21a2.49,2.49,0,0,0-2.5,2.49v70.18a2.49,2.49,0,0,0,2.5,2.49H28a2.49,2.49,0,0,1-2.5-2.49Z"/><path class="cls-3" d="M118.22,30.61c-3.32.26-10.42.17-21.66-3.22a26.43,26.43,0,0,0-26.51,6.25L68.27,36v67.23l1.78,2.39v.09h.07a5.27,5.27,0,0,0,3-1,26.44,26.44,0,0,1,23.4-3.64c16.3,4.92,23.89,2.91,23.89,2.91V32.67a2.06,2.06,0,0,0-2.23-2.06Z"/><path class="cls-4" d="M76.82,28.85a24.79,24.79,0,0,0-6.77,4.79L68.27,36v67.23l1.78,2.39v.09h.07a5.27,5.27,0,0,0,3-1,27.88,27.88,0,0,1,3.66-2.17Z"/><path class="cls-5" d="M112.4,46h-.13a78.19,78.19,0,0,1-16.21-3.25,24.64,24.64,0,0,0-17.28.81,1.73,1.73,0,0,1-1.36-3.18,28,28,0,0,1,19.64-.94,74.51,74.51,0,0,0,15.47,3.11A1.73,1.73,0,0,1,112.4,46Z"/><path class="cls-5" d="M112.4,90.15h-.13A77.47,77.47,0,0,1,96.06,86.9a24.64,24.64,0,0,0-17.28.81,1.73,1.73,0,1,1-1.36-3.18,28,28,0,0,1,19.64-.94,74.44,74.44,0,0,0,15.47,3.1,1.73,1.73,0,0,1-.13,3.46Z"/><path class="cls-5" d="M112.4,60.73h-.13a77.47,77.47,0,0,1-16.21-3.24,24.64,24.64,0,0,0-17.28.81,1.73,1.73,0,0,1-1.36-3.18,28,28,0,0,1,19.64-.94,73.79,73.79,0,0,0,15.47,3.1,1.73,1.73,0,0,1-.13,3.46Z"/><path class="cls-5" d="M112.4,75.44h-.13a77.47,77.47,0,0,1-16.21-3.24A24.64,24.64,0,0,0,78.78,73a1.73,1.73,0,1,1-1.36-3.18,28,28,0,0,1,19.64-.94A73.79,73.79,0,0,0,112.53,72a1.73,1.73,0,0,1-.13,3.46Z"/><path class="cls-3" d="M21.88,30.61c3.32.26,10.42.17,21.66-3.22a26.43,26.43,0,0,1,26.51,6.25v72.05H70a5.27,5.27,0,0,1-3-1,26.44,26.44,0,0,0-23.4-3.64C27.24,106,19.65,104,19.65,104V32.67a2.06,2.06,0,0,1,2.23-2.06Z"/><path class="cls-4" d="M27.26,30.6a36.59,36.59,0,0,1-5.38,0,2.06,2.06,0,0,0-2.23,2.06V104a26.28,26.28,0,0,0,7.61.3Z"/><path class="cls-5" d="M27.7,46a1.73,1.73,0,0,1-.13-3.46A73.79,73.79,0,0,0,43,39.46a28,28,0,0,1,19.64.94,1.73,1.73,0,1,1-1.36,3.18A24.64,24.64,0,0,0,44,42.77,78.19,78.19,0,0,1,27.83,46Z"/><path class="cls-5" d="M27.7,90.15a1.73,1.73,0,0,1-.13-3.46A74.44,74.44,0,0,0,43,83.59a28,28,0,0,1,19.64.94,1.73,1.73,0,1,1-1.36,3.18A24.64,24.64,0,0,0,44,86.9a77.47,77.47,0,0,1-16.21,3.24Z"/><path class="cls-5" d="M27.7,60.73a1.73,1.73,0,0,1-.13-3.46A73.79,73.79,0,0,0,43,54.17a28,28,0,0,1,19.64.94,1.73,1.73,0,1,1-1.36,3.18A24.64,24.64,0,0,0,44,57.48a77.47,77.47,0,0,1-16.21,3.24Z"/><path class="cls-5" d="M27.7,75.44A1.73,1.73,0,0,1,27.57,72,73.79,73.79,0,0,0,43,68.88a28,28,0,0,1,19.64.94A1.73,1.73,0,1,1,61.32,73,24.64,24.64,0,0,0,44,72.19a77.47,77.47,0,0,1-16.21,3.24Z"/></svg>