<svg id="f2d9131f-6893-4c78-b19d-f177f3a834d6" data-name="Calque 1" xmlns="http://www.w3.org/2000/svg" viewBox="0 0 139.56 139.56"><path d="M128.42,85c0,13.14-21.8,16.64-48.74,16.6S30.88,98,30.86,84.84,52.67,61.07,79.61,61.1,128.4,71.83,128.42,85Z" style="fill:#d8ab8b"/><path d="M124.7,75.85a11.55,11.55,0,0,1,.18,2c0,13.14-21.8,16.64-48.74,16.6-20.46,0-38-2.08-45.24-8.83.92,12.47,22.41,15.88,48.78,15.91,26.94,0,48.76-3.46,48.74-16.6A14.06,14.06,0,0,0,124.7,75.85Z" style="fill:#ce9776"/><path d="M51.51,75.49a25.76,25.76,0,0,1,.34,7.45,4.6,4.6,0,0,0,4.09,5,3.39,3.39,0,0,0,.45,0,4.53,4.53,0,0,0,4.51-4.13,34.92,34.92,0,0,0-4-20A67.21,67.21,0,0,0,48,66.72a26.09,26.09,0,0,1,3.47,8.77Z" style="fill:#c7865c"/><path d="M79.49,61.1a99.41,99.41,0,0,0-11.09.62,27.94,27.94,0,0,1,7.36,13.81A26.05,26.05,0,0,1,76.1,83a4.59,4.59,0,0,0,4.09,5,3.4,3.4,0,0,0,.45,0,4.55,4.55,0,0,0,4.51-4.14,35.11,35.11,0,0,0-.47-10.09A35.66,35.66,0,0,0,79.49,61.1Z" style="fill:#c7865c"/><path d="M99.72,75.62a25.83,25.83,0,0,1,0,7.45,4.6,4.6,0,0,0,3.86,5.2l.45,0a4.54,4.54,0,0,0,4.69-3.93,34.68,34.68,0,0,0-2.8-19.49,79,79,0,0,0-12.42-2.79A27.63,27.63,0,0,1,99.72,75.62Z" style="fill:#c7865c"/><path d="M84.12,29.61c9.31,9.28-3.65,27.18-22.73,46.21s-37,32-46.35,22.68c-5.14-5.13-5-14.45-.66-25,.56-1.35,1.79-2.25,2.49-3.63s.86-3.26,1.7-4.67a85.25,85.25,0,0,1,6.67-9.63c1-1.21,3.33-2.14,4.39-3.34,1.41-1.6,1.54-3.46,3.1-5a97.54,97.54,0,0,1,10.54-9.13c1.8-1.33,4.6-1.88,6.4-3s2.58-2.87,4.35-3.79c12.57-6.55,24.14-7.65,30.1-1.71Z" style="fill:#c7865c"/><path d="M84.12,29.61A13.25,13.25,0,0,0,77,26.05v0c9.31,9.28-3.65,27.18-22.73,46.21C39.07,87.48,24.54,98.79,14.57,98l.47.51c9.31,9.28,27.28-3.66,46.35-22.68s32-36.93,22.73-46.21Z" style="fill:#c17e4d"/><path d="M23,77.29a26,26,0,0,1,5.51,5A4.59,4.59,0,0,0,35,83a3.08,3.08,0,0,0,.33-.3,4.54,4.54,0,0,0,.27-6.11,35.44,35.44,0,0,0-7.47-6.81,35.08,35.08,0,0,0-9.55-4.5,65.21,65.21,0,0,0-4.19,8.29A26.32,26.32,0,0,1,23,77.29Z" style="fill:#f3d69c"/><path d="M32.65,47.33a100.56,100.56,0,0,0-7.41,8.28,27.9,27.9,0,0,1,15,4.56,26.18,26.18,0,0,1,5.51,5,4.59,4.59,0,0,0,6.44.66q.17-.13.33-.3a4.54,4.54,0,0,0,.27-6.11A35,35,0,0,0,32.65,47.33Z" style="fill:#f3d69c"/><path d="M57.22,43.29a26,26,0,0,1,5.27,5.26,4.6,4.6,0,0,0,6.41,1c.12-.09.24-.18.35-.28a4.55,4.55,0,0,0,.54-6.1A35.26,35.26,0,0,0,62.64,36,34.78,34.78,0,0,0,54,31.32a80.1,80.1,0,0,0-10.75,6.81,27.7,27.7,0,0,1,13.95,5.16Z" style="fill:#f3d69c"/></svg>