<svg id="a5355477-ae9d-4426-ba17-0157c72e1bed" data-name="Calque 1" xmlns="http://www.w3.org/2000/svg" viewBox="0 0 139.56 138.72"><path d="M125.37,72.5v29c0,9.37-21.09,17-47.11,17-13,0-24.8-1.9-33.33-5s-13.78-7.31-13.78-12v-29Z" style="fill:#e14c4c"/><ellipse cx="78.26" cy="72.5" rx="47.11" ry="16.97" style="fill:#cdcccc"/><path d="M44.93,72.5v41c-8.51-3.08-13.78-7.32-13.78-12v-29Z" style="fill:#d14040"/><path d="M125.24,73.73c-1.75,8.8-22.12,15.74-47,15.74-18.23,0-34-3.74-41.88-9.19-2.85-2-4.64-4.2-5.11-6.55.56-2.78,3-5.38,6.81-7.63C46.36,61.24,61.26,58,78.26,58,103.13,58,123.5,64.93,125.24,73.73Z" style="fill:#e7e6e6"/><path d="M78.26,87.58c-18.9,0-39-4.36-39-12.44s20.08-12.45,39-12.45,39,4.36,39,12.45S97.16,87.58,78.26,87.58Zm0-22c-9.89,0-19.17,1.12-26.13,3.16-7.34,2.15-10,4.71-10,6.39s2.61,4.23,10,6.38c7,2,16.24,3.16,26.13,3.16s19.17-1.12,26.13-3.16c7.34-2.15,10-4.71,10-6.38s-2.61-4.24-10-6.39C97.43,66.71,88.15,65.59,78.26,65.59Z" style="fill:#cdcccc"/><path d="M78.26,80.63A115.41,115.41,0,0,1,60.5,79.42c-6-1-8.48-2.25-8.48-4.28s2.53-3.32,8.48-4.29a115.54,115.54,0,0,1,17.76-1.2A115.63,115.63,0,0,1,96,70.85c5.94,1,8.48,2.25,8.48,4.29S102,78.46,96,79.42A115.51,115.51,0,0,1,78.26,80.63ZM55.43,75.14a25.36,25.36,0,0,0,6.69,1.6,120.56,120.56,0,0,0,16.14,1,120.78,120.78,0,0,0,16.14-1,25.36,25.36,0,0,0,6.69-1.6,24.75,24.75,0,0,0-6.69-1.61,120.78,120.78,0,0,0-16.14-1,120.56,120.56,0,0,0-16.14,1A24.75,24.75,0,0,0,55.43,75.14Zm46.28.38Z" style="fill:#cdcccc"/><path d="M64,80.28H36.38c-2.85-2-4.64-4.2-5.11-6.55.56-2.78,3-5.38,6.81-7.63Z" style="fill:#cdcccc"/><path d="M111.14,34.32v29c0,9.37-21.09,17-47.11,17-13,0-24.8-1.9-33.32-5S16.92,68,16.92,63.31v-29Z" style="fill:#67c6e4"/><path d="M30.7,34.32v41c-8.51-3.07-13.78-7.31-13.78-12v-29Z" style="fill:#69b1e2"/><path d="M111.14,34.32a6.41,6.41,0,0,1-.12,1.23c-1.75,8.79-22.12,15.74-47,15.74s-45.23-6.95-47-15.74a6.41,6.41,0,0,1-.12-1.23c0-9.38,21.09-17,47.1-17S111.14,24.94,111.14,34.32Z" style="fill:#cdcccc"/><path d="M111,35.55c-1.75,8.79-22.12,15.74-47,15.74s-45.23-6.95-47-15.74c1.75-8.8,22.11-15.74,47-15.74S109.27,26.75,111,35.55Z" style="fill:#e7e6e6"/><path d="M53.72,58a20.31,20.31,0,0,0-15.24,6.88,20.32,20.32,0,0,0,30.48,0A20.29,20.29,0,0,0,53.72,58Z" style="fill:#e7e6e6"/><path d="M79.41,64.87a20.21,20.21,0,0,1,1.09-6.54A20.31,20.31,0,0,0,69,64.87,20.31,20.31,0,0,0,80.5,71.41,20.21,20.21,0,0,1,79.41,64.87Z" style="fill:#e7e6e6"/><path d="M81.63,96.19a20.26,20.26,0,0,1,15.24,6.88,20.32,20.32,0,0,1-30.48,0A20.28,20.28,0,0,1,81.63,96.19Z" style="fill:#e7e6e6"/><path d="M56,103.07a20,20,0,0,0-1.1-6.54,20.31,20.31,0,0,1,11.54,6.54,20.31,20.31,0,0,1-11.54,6.54A20,20,0,0,0,56,103.07Z" style="fill:#e7e6e6"/><path d="M64,49.4c-18.89,0-39-4.36-39-12.45S45.14,24.51,64,24.51,103,28.87,103,37,82.93,49.4,64,49.4Zm0-22c-9.89,0-19.17,1.12-26.13,3.16C30.57,32.72,28,35.28,28,37s2.62,4.24,10,6.39c7,2,16.24,3.16,26.13,3.16s19.17-1.12,26.13-3.16c7.34-2.15,10-4.71,10-6.39s-2.61-4.23-10-6.38C83.2,28.53,73.92,27.41,64,27.41Z" style="fill:#cdcccc"/><path d="M64,42.44a115.63,115.63,0,0,1-17.76-1.2c-5.94-1-8.48-2.25-8.48-4.29s2.54-3.32,8.48-4.28A115.51,115.51,0,0,1,64,31.46,115.65,115.65,0,0,1,81.8,32.67c5.94,1,8.47,2.25,8.47,4.28s-2.53,3.32-8.47,4.29A115.77,115.77,0,0,1,64,42.44ZM41.2,37a24.75,24.75,0,0,0,6.69,1.61,120.78,120.78,0,0,0,16.14,1,120.56,120.56,0,0,0,16.14-1A24.75,24.75,0,0,0,86.86,37a24.93,24.93,0,0,0-6.69-1.6,120.56,120.56,0,0,0-16.14-1,120.78,120.78,0,0,0-16.14,1A24.93,24.93,0,0,0,41.2,37Zm46.28.38h0Z" style="fill:#cdcccc"/></svg>