<svg id="ff8955c1-5806-426c-8836-9438904017d6" data-name="Calque 1" xmlns="http://www.w3.org/2000/svg" viewBox="0 0 139.56 139.56"><path d="M87.34,112.21c6.23,0,12.46,0,18.69,0,.78,0,1-.09.65-1a2.83,2.83,0,0,1,1.77-4,3.06,3.06,0,0,1,3.71,2.34,2.42,2.42,0,0,1-.36,1.77c-.29.64-.12.88.55.85a3.23,3.23,0,0,1,.44,0c3.2.27,4.55-1.37,3.92-4.78-.4-2.16-.49-4.38-.74-6.58-.33-3-.7-6-1-8.93-.25-2.23-.46-4.47-.71-6.7s-.49-4.45-.78-6.67a3,3,0,0,1,.1-1c.28-.16.55-.35.84-.5a3,3,0,0,1,4.41,2.43c1,9,2,18,3,27,.25,2.31.46,4.64.75,7,.34,2.71-1.41,3.82-3.52,3.8-9.1-.09-18.21,0-27.32,0a5.75,5.75,0,0,1-4.61-2.07c-.76-.88-1.47-1.8-2.21-2.7C85.41,111.74,86.19,111.65,87.34,112.21Z" style="fill:#f7c201"/><path d="M32.26,106.75c-1.23-2.3-.79-4.45,1.39-6.77a22.41,22.41,0,0,1,12-6.59,2.14,2.14,0,0,0,.39-.16,1.09,1.09,0,0,1,.29-.23,19.64,19.64,0,0,1,12.32,1.73,1.05,1.05,0,0,1,.55.51,8,8,0,0,0,.1,1.29,9,9,0,0,1-2.49,8.1c-3.46,3.7-7.82,5.08-12.72,5.28A22.34,22.34,0,0,1,32.26,106.75Z" style="fill:#efad9f"/><path d="M32.26,106.75c.77-.31,1.25.37,1.81.63a21.52,21.52,0,0,0,11.3,2.2c5-.49,9.38-2.31,12.37-6.58A8.16,8.16,0,0,0,59,96.44c-.06-.29-.63-.83.15-1.06,1,0,1.66.77,2.41,1.29a11.86,11.86,0,0,1,1.26,1.2,9.18,9.18,0,0,1,1.85,2.64,8.47,8.47,0,0,1-.08,7.86,2.23,2.23,0,0,1-1,1.21c-5,5.72-11.38,7.08-18.51,5.58a21.07,21.07,0,0,1-11.41-6.45A7.33,7.33,0,0,1,32.26,106.75Z" style="fill:#e38f80"/><path d="M117.12,107.81c-1.08-9-2-17.94-3-26.9a9.83,9.83,0,0,0-.55-3.31c-1.81.94-3.6,1.89-5.41,2.81-3.79,1.93-7.48,4-11.33,5.84a2.37,2.37,0,0,0-.72.21A15.13,15.13,0,0,0,93.27,88l-.33.36-.07,0L84.3,92.8Q80.41,94.87,76.54,97a2.83,2.83,0,0,0-1.21,4.14c.19.31.42.59.63.88a3.69,3.69,0,0,0,1.86,2.11l0,0c.19,1,1.14,1.55,1.66,2.36.87,1.06,1.76,2.09,2.67,3.11a1.58,1.58,0,0,1,.39.24l1.5,1.59h0a3.15,3.15,0,0,0,.87,1.08c.74-.54,1.59-.16,2.39-.28a.76.76,0,0,0,.31.23,5.15,5.15,0,0,0,1.52.11h15.94c2.13,0,2.13,0,1.76-2a2.5,2.5,0,1,1,4.77.6c-.35,1-.08,1.34,1,1.42a7.15,7.15,0,0,0,2-.07,3.12,3.12,0,0,0,2.67-3A8.89,8.89,0,0,0,117.12,107.81Zm-20.43-3a2.62,2.62,0,0,1-3.27,1.74,1.91,1.91,0,0,0-.85-.15l0,0a9.49,9.49,0,0,0-1.21-2.15l.12-.13c.16-.33.23-.69.38-1A2.67,2.67,0,0,1,95,101.51,2.71,2.71,0,0,1,96.69,104.77Z" style="fill:#fcdd2e"/><path d="M102.26,100.63a4.8,4.8,0,0,1,.23-9.6,4.71,4.71,0,0,1,4.71,4.84A4.9,4.9,0,0,1,102.26,100.63Z" style="fill:#edba06"/><path d="M92.59,106.53a3.9,3.9,0,0,1-1.32-2.4c.37-2.16,1.88-3.41,3.61-3a3,3,0,0,1,2.09,3.7,2.84,2.84,0,0,1-3.87,1.85A4.32,4.32,0,0,0,92.59,106.53Z" style="fill:#eab902"/><path d="M72.26,109.59a17.5,17.5,0,0,1,2.65-.78,15.08,15.08,0,0,0,3.85-2.13,1.25,1.25,0,0,1,.86-.37,32.65,32.65,0,0,1,2.71,3.27Z" style="fill:#a2d9f0"/><path d="M96.61,82C98.66,37.19,84,50.55,83,29.81c.81-1.39-.38-3.24,1.11-4.34a1.77,1.77,0,0,0,.82-1.56c1.09-5.06-4.33-4.74-7.81-4.55,5.66,3.1,1.28,7.78-3.71,6.74-2.45,0-2.47,0-2.45,2.45a44.4,44.4,0,0,0,.1,5.77c.8,5.24,5.45,8.58,8,13A34.36,34.36,0,0,1,84,66q0,11,0,22.07c.21,1.32-.88,5.74,1.49,4.52C89.7,89.7,96.8,100.63,96.61,82Z" style="fill:#a2d9f0"/><path d="M84.27,80.75c0-1.32,0-2.63,0-3.94h0c0-10,1-21-5-29.5-2-4.15-6.49-7.23-7.63-11.93-.15-1.79-1.4-8.89.67-9,1.42,0,2.84.06,4.25,0,3.94-.18,4.81-6.36.57-7C72.59,20.18,52,16,58.94,25.51c1.85,3.83.1,9.05-1.11,13C41.4,56.09,47,71.55,46.24,93.2c5.86-.81,12.11.56,16.41,4.8a9.06,9.06,0,0,1,.89,11.58c5.5-.06,11.72,1.06,16.08-3.27-1.06-1.74-3-3-3.68-4.85-3.26-5.27,6.25-5.57,8.36-8.66Zm-2.22-2.08c-.87,5.76-14,2.48-18.84,3.24-6.21.14-3.65-7.06-4.71-10.58a5.86,5.86,0,0,1,3.68-3.7c5.2,1.78,14.56-1.76,18.85,1.72,2.08,2.51.12,6.24,1.27,9A.53.53,0,0,0,82.05,78.67Z" style="fill:#a9dae7"/><path d="M58.48,71.34C58.89,69,60,67.89,62.2,67.6l13.76,0A4.2,4.2,0,0,1,79.13,72c0,1.92,0,3.85,0,5.78a4.14,4.14,0,0,1-3.35,4.44c-4.37,0-8.73.06-13.09,0a4.19,4.19,0,0,1-4.2-4.36c0-2,0-3.93,0-5.89C58.47,71.78,58.47,71.56,58.48,71.34Z" style="fill:#fad1d4"/><path d="M75.78,82.24c.54-.48,1.28-.65,1.79-1.21a4.12,4.12,0,0,0,1.26-3c0-1.92-.1-3.86,0-5.78A4.5,4.5,0,0,0,76.3,67.9c-.12-.08-.23-.18-.34-.27.69,0,1.38,0,2.07,0a4.15,4.15,0,0,1,4.27,4.22c0,2.17,0,4.34,0,6.52-.42,2.35-1.53,3.47-3.94,4Z" style="fill:#f5afb9"/></svg>