<svg id="Calque_1" data-name="Calque 1" xmlns="http://www.w3.org/2000/svg" viewBox="0 0 139.56 139.56"><defs><style>.cls-1{fill:#2695d3;}.cls-2{fill:#95d5f3;}.cls-3{fill:#4bb6e9;}.cls-4{fill:#b8e2f6;}.cls-5{fill:#c4d2dd;}.cls-6{fill:#a2d9f0;}.cls-7{fill:#d2e0e6;}.cls-8{fill:#e8f0f3;}</style></defs><path class="cls-1" d="M77.58,53.62l-2.15,20,2.15,25.81c3.1-2.62,29.53-17.2,29.53-17.2l3.35-28.64Z"/><path class="cls-2" d="M77.58,86.34l-2.15,15.28,2.15,10.75h26l3.53-30.11H88.77A17.24,17.24,0,0,0,77.58,86.34Z"/><path class="cls-3" d="M49.32,93s27.41,7.18,28.26,6.45V53.62H44.7Z"/><path class="cls-4" d="M75.22,88.77A11.26,11.26,0,0,1,66.39,93H49.32l2.27,19.36h26v-26A17.53,17.53,0,0,0,75.22,88.77Z"/><path class="cls-3" d="M59.64,55.31V49.26a6.31,6.31,0,0,0,0-12.61h-9v-6h9a12.36,12.36,0,1,1,0,24.71Z"/><path class="cls-5" d="M83,66.73,71.49,58.22l34-46.19a7.18,7.18,0,0,1,10-1.52h0a7.17,7.17,0,0,1,1.52,10Z"/><polygon class="cls-6" points="113.92 51.23 77.58 51.23 75.43 60.74 77.58 70.22 111.69 70.22 113.92 51.23"/><polygon class="cls-4" points="41.25 51.23 43.47 70.22 77.58 70.22 77.58 51.23 41.25 51.23"/><polygon class="cls-7" points="117.38 49.26 77.58 49.26 75.43 52.14 77.58 55.31 117.38 55.31 117.38 49.26"/><rect class="cls-8" x="37.79" y="49.26" width="39.8" height="6.05"/></svg>