<svg id="Calque_1" data-name="Calque 1" xmlns="http://www.w3.org/2000/svg" viewBox="0 0 139.56 139.56"><defs><style>.cls-1{fill:#cbe9f9;}.cls-2{fill:#a2d9f0;}.cls-3{fill:#f7c201;}.cls-4{fill:#fcdd2e;}.cls-5{fill:#67c6e4;}.cls-6{fill:#69b1e2;}.cls-7{fill:#274596;}</style></defs><path class="cls-1" d="M50.7,88.58,49,88.6c0-.5,0-1.08,0-1.7a2.91,2.91,0,0,0-4.16-2.69c-.09,0-8.9,4.15-23.11,1.3a2.91,2.91,0,0,0-3.47,2.85c0,6.12,2,11.5,5.5,14.75,3.68,3.42,7.29,7,10.71,10.7,3.25,3.5,8.62,5.51,14.75,5.51a2.9,2.9,0,0,0,2.84-3.47c-2.84-14.21,1.26-23,1.31-23.11a2.9,2.9,0,0,0-2.69-4.16Z"/><path class="cls-2" d="M53.39,92.74c0,.08-4.15,8.9-1.31,23.11a2.9,2.9,0,0,1-2.84,3.47c-6.13,0-11.5-2-14.75-5.51-1.71-1.84-3.47-3.66-5.26-5.45L49,88.6l1.71,0a2.9,2.9,0,0,1,2.69,4.16Z"/><path class="cls-3" d="M65.35,106.9c-.2-.32-4.74-7.86-5.33-16.35a2.89,2.89,0,0,1,2.44-3.06C72.72,85.85,81.2,82.66,87.65,78a2.91,2.91,0,0,1,4.6,2.36,32.54,32.54,0,0,1-2.59,12.31c-4.78,11.5-20.49,15.38-21.16,15.54a2.9,2.9,0,0,1-3.15-1.31Z"/><path class="cls-4" d="M51.56,76.17c-3-4-12.74-3.85-15.94-3.5a2.9,2.9,0,0,1-3.22-2.88,87.54,87.54,0,0,1,2-17.28c2.1-9.25,6.48-19.3,15.8-21.17,9.14-1.83,14.59.82,17.55,3.35a14.45,14.45,0,0,1,4.39,6.44,2.94,2.94,0,0,1-.56,2.66c-15.06,18.06-11.67,23.35-15,31.72a2.9,2.9,0,0,1-5,.66Zm15-33.41Z"/><path class="cls-5" d="M96.19,78.35c-8.6,8.6-20.8,13-32.82,14.87A93,93,0,0,1,46,94.35a2.91,2.91,0,0,1-2.74-2.73c0-.08-.1-1.9,0-4.87.43-15.94,4.76-34.06,16-45.34C77.64,23,107.47,15.73,114.45,23.14c7.39,7.68,0,36.9-18.26,55.21Z"/><path class="cls-6" d="M96.19,78.35c-8.6,8.6-20.8,13-32.82,14.87A93,93,0,0,1,46,94.35a2.88,2.88,0,0,1-1.89-.84l70.36-70.37c7.39,7.68,0,36.9-18.26,55.21Z"/><path class="cls-1" d="M114.45,23.14C111.18,19.67,104,20,99.31,20.75a72.73,72.73,0,0,0-22,7.53S77.93,38,88.71,48.81s20.63,11.51,20.63,11.51c4.79-9.1,7.28-18.09,7.83-24.72C117.51,31.54,117.3,26.11,114.45,23.14Z"/><path class="cls-2" d="M117.17,35.6c-.55,6.63-3,15.62-7.83,24.72,0,0-9.82-.73-20.59-11.48l25.7-25.7c2.85,3,3.06,8.4,2.72,12.46Z"/><path class="cls-7" d="M97.22,38.64a2.9,2.9,0,1,1,2.24-4.74A2.91,2.91,0,0,1,97.22,38.64Z"/></svg>