<svg id="Calque_1" data-name="Calque 1" xmlns="http://www.w3.org/2000/svg" viewBox="0 0 139.56 139.56"><defs><style>.cls-1{fill:#9ccc95;}.cls-2{fill:#906f55;}.cls-3{fill:#e14c4c;}.cls-4{fill:#d14040;}</style></defs><path class="cls-1" d="M68.86,43.08c-12.26,1.09-21.29-7.95-20.21-20.2C60.9,21.8,69.94,30.83,68.86,43.08Z"/><path class="cls-2" d="M69.33,51.62a2.68,2.68,0,0,1-2-2.3A19.79,19.79,0,0,1,84.8,27.5a2.68,2.68,0,0,1,.58,5.33,14.39,14.39,0,0,0-12.74,15.9,2.67,2.67,0,0,1-2.37,3A2.45,2.45,0,0,1,69.33,51.62Z"/><path class="cls-3" d="M89.18,43.05a15.58,15.58,0,0,0-8.91.34,37.83,37.83,0,0,1-23.34,0A15.58,15.58,0,0,0,48,43.05c-11.67,3.11-17.3,20-12.58,37.71s18,29.55,29.67,26.45h0a13,13,0,0,1,6.9,0h0c11.66,3.1,25-8.74,29.67-26.45S100.85,46.16,89.18,43.05Z"/><path class="cls-4" d="M101.76,80.76c-4.72,17.71-18,29.55-29.69,26.45h0a13.07,13.07,0,0,0-6.91,0h0c-4.4,1.16-9,.21-13.3-2.35,22.89-8.84,40-31.17,43.63-58.37C102.7,53,105.53,66.6,101.76,80.76Z"/></svg>