<svg id="a3eff86c-bcbd-4144-bf23-b78c937a0430" data-name="Calque 1" xmlns="http://www.w3.org/2000/svg" viewBox="0 0 139.56 139.56"><path d="M53.84,41.14c-10.78,1-18.73-7-17.78-17.78C46.84,22.41,54.79,30.36,53.84,41.14Z" style="fill:#9ccc95"/><path d="M54.26,48.65a2.37,2.37,0,0,1-1.78-2A17.4,17.4,0,0,1,67.87,27.43a2.35,2.35,0,1,1,.51,4.68,12.69,12.69,0,0,0-11.21,14,2.37,2.37,0,0,1-2.09,2.61A2.25,2.25,0,0,1,54.26,48.65Z" style="fill:#906f55"/><path d="M71.73,41.11a13.84,13.84,0,0,0-7.85.3,33.36,33.36,0,0,1-20.54,0,13.8,13.8,0,0,0-7.84-.3C25.23,43.85,20.28,58.7,24.43,74.29s15.85,26,26.12,23.27h0a11.57,11.57,0,0,1,6.07,0h0c10.27,2.74,22-7.68,26.12-23.27S82,43.85,71.73,41.11Z" style="fill:#e14c4c"/><path d="M82.79,74.29c-4.15,15.59-15.85,26-26.12,23.27h0a11.61,11.61,0,0,0-6.08,0h0a15.13,15.13,0,0,1-11.7-2.06C59,87.72,74.09,68.07,77.24,44.13,83.62,49.85,86.12,61.83,82.79,74.29Z" style="fill:#d14040"/><path d="M92.26,82c-1,1-2.73,2.51-5.07,4.41l-2.14,1.72c-2.45,1.94-5.32,4.14-8.44,6.43L74.37,96.2C59,107.31,39.13,119.69,34.85,115.42,32.5,113.07,35.2,106,40,97.51c.45-.81.92-1.63,1.41-2.45,1.55-2.63,3.26-5.35,5.05-8.08L48,84.65c4.85-7.22,10.09-14.27,14.17-19.42.6-.76,1.18-1.48,1.73-2.15,1.9-2.33,3.43-4.1,4.4-5.07a17,17,0,0,1,24,24Z" style="fill:#f6a860"/><path d="M92.26,58A15.87,15.87,0,0,0,91,56.91a17,17,0,0,1-1.1,22.78c-6.24,6.23-45.69,36.18-55.85,34.17a2.91,2.91,0,0,0,.76,1.56C41.48,122,85.63,88.64,92.26,82a17,17,0,0,0,0-24Z" style="fill:#f49640"/><path d="M122.38,51.07a7,7,0,0,0-2.13-11.3A7,7,0,0,0,110.51,30a7,7,0,0,0-1.46-2.13,7,7,0,0,0-9.85,0l-.14.14a7,7,0,0,0-8.53,10.89,7.74,7.74,0,0,0,1,.86,7,7,0,0,0,1.53,7.54,7.07,7.07,0,0,0,1.27,1l-5.89,6.85A17,17,0,0,1,92.26,58a16.74,16.74,0,0,1,2.84,3.77l6.85-5.9a7.1,7.1,0,0,0,1,1.28,7,7,0,0,0,7.54,1.53,6.42,6.42,0,0,0,.86,1,7,7,0,0,0,10.88-8.53.93.93,0,0,0,.14-.14Z" style="fill:#9cc97c"/><path d="M122.24,51.21a.93.93,0,0,0,.14-.14,7,7,0,0,0,0-9.85,7.42,7.42,0,0,0-1.29-1c2.32,4.49.18,7.36-.77,8.33a.91.91,0,0,0-.23.89c.43,1.44,1.29,5.48-1.51,8.29a7,7,0,0,1-10-.84.89.89,0,0,0-1-.29,6.94,6.94,0,0,1-7-1.73c-.17-.17-.32-.34-.47-.52a.91.91,0,0,0-1.3-.11l-5.64,4.86a17,17,0,0,1,1.87,2.71l6.85-5.9a7.1,7.1,0,0,0,1,1.28,7,7,0,0,0,7.54,1.53,6.71,6.71,0,0,0,1.65,1.72,7,7,0,0,0,10.09-9.21Z" style="fill:#89c061"/><path d="M73.23,74.39a1.37,1.37,0,0,1-1.93,0l-9.17-9.16c.6-.76,1.18-1.48,1.73-2.15l9.37,9.38a1.37,1.37,0,0,1,0,1.93Z" style="fill:#e9834d"/><path d="M76.61,94.57,74.37,96.2,59.1,80.93A1.37,1.37,0,0,1,61,79Z" style="fill:#e9834d"/><path d="M60.39,99a1.37,1.37,0,0,1-1.93,0l-12-12L48,84.65,60.39,97.09A1.35,1.35,0,0,1,60.39,99Z" style="fill:#e9834d"/><path d="M46,101.62a1.38,1.38,0,0,1-1.93,0L40,97.51c.45-.81.92-1.63,1.41-2.45L46,99.69A1.37,1.37,0,0,1,46,101.62Z" style="fill:#e9834d"/><path d="M85.05,88.14l-6-6A1.36,1.36,0,0,1,81,80.22l6.2,6.2Z" style="fill:#e9834d"/><path d="M76.61,94.57,74.37,96.2l-2.32-2.32,2.24-1.63Z" style="fill:#d76f41"/><path d="M82.72,85.82l2.33,2.32,2-1.59.16-.13L84.87,84.1Z" style="fill:#d76f41"/></svg>