<svg id="Calque_1" data-name="Calque 1" xmlns="http://www.w3.org/2000/svg" viewBox="0 0 140.56 140.56"><defs><style>.cls-1{fill:#f29481;}.cls-2{fill:#e97e6c;}.cls-3{fill:#f8beac;}.cls-4{fill:#edf5fd;}.cls-5{fill:#d6e8f8;}</style></defs><path class="cls-1" d="M86.75,55.63H51.59a2.94,2.94,0,0,1-2.94-2.93V27A16.64,16.64,0,0,1,65.27,10.34h7.79A16.64,16.64,0,0,1,89.68,27V52.7a2.93,2.93,0,0,1-2.93,2.93Z"/><path class="cls-2" d="M73.06,130.23H65.27a16.64,16.64,0,0,1-16.62-16.62V87.86a2.94,2.94,0,0,1,2.94-2.93H86.75a2.93,2.93,0,0,1,2.93,2.93v25.75a16.64,16.64,0,0,1-16.62,16.62Z"/><path class="cls-3" d="M112.5,90.79H25.84A16.63,16.63,0,0,1,9.22,74.18V66.39A16.64,16.64,0,0,1,25.84,49.77H112.5a16.63,16.63,0,0,1,16.61,16.62v7.79A16.63,16.63,0,0,1,112.5,90.79Z"/><path class="cls-1" d="M112.5,90.79H48.65l41-41H112.5a16.63,16.63,0,0,1,16.61,16.62v7.79A16.63,16.63,0,0,1,112.5,90.79Z"/><circle class="cls-4" cx="23.87" cy="64.42" r="2.93"/><circle class="cls-4" cx="23.87" cy="76.14" r="2.93"/><circle class="cls-4" cx="35.59" cy="64.42" r="2.93"/><circle class="cls-4" cx="35.59" cy="76.14" r="2.93"/><circle class="cls-5" cx="114.46" cy="64.42" r="2.93"/><circle class="cls-5" cx="114.46" cy="76.14" r="2.93"/><circle class="cls-5" cx="102.74" cy="64.42" r="2.93"/><circle class="cls-5" cx="102.74" cy="76.14" r="2.93"/><circle class="cls-5" cx="75.03" cy="115.58" r="2.93"/><circle class="cls-5" cx="63.31" cy="115.58" r="2.93"/><circle class="cls-5" cx="75.03" cy="103.86" r="2.93"/><circle class="cls-5" cx="63.31" cy="103.86" r="2.93"/><circle class="cls-4" cx="75.03" cy="24.99" r="2.93"/><circle class="cls-4" cx="63.31" cy="24.99" r="2.93"/><circle class="cls-4" cx="75.03" cy="36.71" r="2.93"/><circle class="cls-4" cx="63.31" cy="36.71" r="2.93"/><path class="cls-4" d="M80.55,79.07H57.78a2.93,2.93,0,0,1-2.93-2.93V64.42a2.93,2.93,0,0,1,2.93-2.93H80.55a2.93,2.93,0,0,1,2.93,2.93V76.14a2.93,2.93,0,0,1-2.93,2.93Z"/><path class="cls-5" d="M80.55,79.07H60.38L78,61.49h2.59a2.93,2.93,0,0,1,2.93,2.93V76.14a2.93,2.93,0,0,1-2.93,2.93Z"/></svg>