<svg id="Calque_1" data-name="Calque 1" xmlns="http://www.w3.org/2000/svg" viewBox="0 0 139.56 139.56"><defs><style>.cls-1{fill:#48452c;}.cls-2{fill:#fcdd2e;}.cls-3{fill:#e14c4c;}.cls-4{fill:#d14040;}</style></defs><path class="cls-1" d="M93.94,25.2l-11.31,8H65L61.9,29.7A8,8,0,0,0,56,27.09H48.15V20.24a4,4,0,0,1,4-4H86Z"/><path class="cls-2" d="M65,33.15h17.6v8.26H65Z"/><path class="cls-3" d="M93.94,115.11H42.46v-2.93A122.19,122.19,0,0,1,65,41.41h17.6l4.57,3.2a15.86,15.86,0,0,1,6.74,13Z"/><path class="cls-4" d="M57.62,115c.88-26.26,7.5-51.71,19.14-73.63H87.92l2.57,2.24a11,11,0,0,1,3.45,8.27V115Z"/><path class="cls-4" d="M41.69,20.64h6.46v6.45H41.69Z"/><path class="cls-2" d="M48.15,27.09v6.06l-4.4,8.26h5.86l5.76-8.26V27.09Z"/></svg>