<svg id="Calque_1" data-name="Calque 1" xmlns="http://www.w3.org/2000/svg" viewBox="0 0 139.56 139.56"><defs><style>.cls-1{fill:#c4d2dd;}.cls-2{fill:#e14c4c;}.cls-3{fill:#d14040;}.cls-4{fill:#67c6e4;}</style></defs><g id="_05-shower" data-name=" 05-shower"><g id="gradient"><path class="cls-1" d="M117.58,25.6H106.44a5.61,5.61,0,0,0-3.94,1.63L91.37,38.37a2.08,2.08,0,0,0,0,3l4.92,4.92a2.08,2.08,0,0,0,2.95,0h0l9.51-9.5h8.83Z"/><path class="cls-2" d="M101.21,47.27,102.48,46a2.09,2.09,0,0,0,0-3h0l-7.87-7.87a2.09,2.09,0,0,0-3,0l-1.26,1.27a27.14,27.14,0,0,0-32.2,4.64,2.08,2.08,0,0,0,0,2.95L93.62,79.47a2.08,2.08,0,0,0,2.95,0h0a27.14,27.14,0,0,0,4.64-32.2Z"/><path class="cls-3" d="M100.51,76.52,61.14,37.15a2.08,2.08,0,0,0-3,0l-5.91,5.9a2.11,2.11,0,0,0,0,3h0L91.65,85.38a2.11,2.11,0,0,0,3,0l5.9-5.91a2.08,2.08,0,0,0,0-3Z"/><circle class="cls-4" cx="67.54" cy="70.12" r="2.09"/><circle class="cls-4" cx="73.94" cy="76.52" r="2.09"/><circle class="cls-4" cx="80.33" cy="82.92" r="2.09"/><circle class="cls-4" cx="61.14" cy="63.72" r="2.09"/><circle class="cls-4" cx="54.74" cy="57.33" r="2.09"/><circle class="cls-4" cx="59.17" cy="78.49" r="2.09"/><circle class="cls-4" cx="65.57" cy="84.89" r="2.09"/><circle class="cls-4" cx="71.97" cy="91.28" r="2.09"/><circle class="cls-4" cx="52.77" cy="72.09" r="2.09"/><circle class="cls-4" cx="46.38" cy="65.69" r="2.09"/><circle class="cls-4" cx="51.3" cy="86.36" r="2.09"/><circle class="cls-4" cx="57.7" cy="92.76" r="2.09"/><circle class="cls-4" cx="64.09" cy="99.16" r="2.09"/><circle class="cls-4" cx="44.9" cy="79.97" r="2.09"/><circle class="cls-4" cx="38.5" cy="73.57" r="2.09"/><circle class="cls-4" cx="43.42" cy="94.24" r="2.09"/><circle class="cls-4" cx="49.82" cy="100.64" r="2.09"/><circle class="cls-4" cx="56.22" cy="107.03" r="2.09"/><circle class="cls-4" cx="37.03" cy="87.84" r="2.09"/><circle class="cls-4" cx="30.63" cy="81.44" r="2.09"/></g></g></svg>