<svg id="ad0ad4c1-bda1-4dcb-85cc-6a10a6555179" data-name="Calque 1" xmlns="http://www.w3.org/2000/svg" viewBox="0 0 139.56 139.56"><polygon points="78.13 41.37 69.7 29.73 53.73 29.73 45.3 41.37 40.2 126.14 83.24 126.14 78.13 41.37" style="fill:#9cc97c"/><path d="M78.13,41.36,69.7,29.73H71a.84.84,0,0,0,.84-.91L70.23,10.14a.82.82,0,0,0-.83-.76H54a.84.84,0,0,0-.83.76L51.62,28.82a.84.84,0,0,0,.83.91h1.28L45.3,41.36Z" style="fill:#e9eaeb"/><path d="M82.9,40.66l15.36,3.42,6.91-31L89.81,9.66a1.19,1.19,0,0,0-1.42.9L82,39.25A1.18,1.18,0,0,0,82.9,40.66Z" style="fill:#e2dee2"/><path d="M91.83,66.78l12.54-56.29a1.43,1.43,0,0,1,1.7-1.08l3.45.77a1.42,1.42,0,0,1,1.08,1.7l-26,116.61-6.18-1.37a4.17,4.17,0,0,1-3.08-5.27l15.4-51C91.17,69.52,91.53,68.16,91.83,66.78Z" style="fill:#f7c201"/><polygon points="78.13 41.37 69.7 29.73 56.31 29.73 64.75 41.37 69.85 126.14 83.24 126.14 78.13 41.37" style="fill:#89c061"/><polygon points="78.13 41.36 75.92 38.31 69.7 29.73 56.31 29.73 64.74 41.36 78.13 41.36" style="fill:#d8dde2"/><path d="M71,29.73H52.45a.84.84,0,0,1-.83-.91L53.2,10.14A.83.83,0,0,1,54,9.38H69.4a.82.82,0,0,1,.83.76l1.58,18.68A.83.83,0,0,1,71,29.73Z" style="fill:#e14c4c"/><path d="M70.23,10.14a.82.82,0,0,0-.83-.76H57l1.73,20.35H71a.83.83,0,0,0,.83-.91Z" style="fill:#d14040"/><path d="M85.78,130.18H37.66a1,1,0,0,1-1-1v-2.82a3.57,3.57,0,0,1,3.57-3.57h43a3.57,3.57,0,0,1,3.57,3.57v2.82A1,1,0,0,1,85.78,130.18Z" style="fill:#89c061"/><path d="M83.23,122.77h-9.6v7.41H85.78a1,1,0,0,0,1-1v-2.82A3.57,3.57,0,0,0,83.23,122.77Z" style="fill:#89c061"/><circle cx="61.72" cy="77.93" r="12.07" style="fill:#fff"/><path d="M62.32,65.88a12,12,0,0,0-7.18,1.94,12.05,12.05,0,0,1,0,20.23,12.07,12.07,0,1,0,7.18-22.17Z" style="fill:#d8dde2"/><path d="M92.42,25.15a1.83,1.83,0,1,0,.79-3.57L86.28,20l-.79,3.56,6.93,1.55Z" style="fill:#f3f0f3"/><path d="M96,17.43a1.83,1.83,0,0,0-1.38-2.18l-6.94-1.54-.79,3.56,6.93,1.54A1.82,1.82,0,0,0,96,17.43Z" style="fill:#f3f0f3"/><path d="M91,31.48a1.82,1.82,0,1,0,.79-3.56l-6.93-1.55-.79,3.56L91,31.48Z" style="fill:#f3f0f3"/><path d="M89.6,37.81a1.82,1.82,0,1,0,.79-3.56l-6.93-1.54-.8,3.56,6.94,1.54Z" style="fill:#f3f0f3"/></svg>