<svg id="a842f70d-bda5-4c9a-b6ef-951fd5fff327" data-name="Calque 1" xmlns="http://www.w3.org/2000/svg" xmlns:xlink="http://www.w3.org/1999/xlink" viewBox="0 0 205.74 169.89"><defs><linearGradient id="a0fbfcf9-cb04-486b-803a-583210372ff7" x1="15.58" y1="75.97" x2="205.74" y2="75.97" gradientUnits="userSpaceOnUse"><stop offset="0.18" stop-color="#e9907a"/><stop offset="0.87" stop-color="#e8907a"/></linearGradient></defs><path d="M85.68,1C133,1,171.36,38.77,171.36,85.42S133,169.89,85.68,169.89,0,132.06,0,85.42,38.36,1,85.68,1Z"/><path d="M16.56,78.85,40,55.42a3.33,3.33,0,0,1,4.72,0L80.56,91.27,170.85,1a3.33,3.33,0,0,1,4.72,0l29.19,29.18a3.33,3.33,0,0,1,0,4.72L88.68,151A3.33,3.33,0,0,1,84,151L16.55,83.55A3.33,3.33,0,0,1,16.56,78.85Z" style="fill:url(#a0fbfcf9-cb04-486b-803a-583210372ff7)"/></svg>