<svg id="Calque_1" data-name="Calque 1" xmlns="http://www.w3.org/2000/svg" viewBox="0 0 140.56 140.56"><defs><style>.cls-1{fill:#695f69;}.cls-2{fill:#e8907a;}.cls-3{fill:#eccdc5;}.cls-4{fill:#59505a;}</style></defs><path class="cls-1" d="M72.63,123.68A53.45,53.45,0,1,1,110.46,108,53.21,53.21,0,0,1,72.63,123.68Z"/><path d="M110.46,108A53.4,53.4,0,0,0,72.63,16.88v106.8A53.19,53.19,0,0,0,110.46,108Z"/><path class="cls-2" d="M72.63,92.11A21.83,21.83,0,1,1,94.49,70.28,21.87,21.87,0,0,1,72.63,92.11Z"/><path class="cls-3" d="M94.49,70.28A21.88,21.88,0,0,0,72.63,48.45V92.11A21.87,21.87,0,0,0,94.49,70.28Z"/><path class="cls-4" d="M72.63,73.42a3.14,3.14,0,0,1-3.14-3.14,3.2,3.2,0,0,1,.92-2.22,3.14,3.14,0,1,1,2.22,5.36Z"/><path d="M50.3,103.87a3.12,3.12,0,0,1-1.85-.6A40.77,40.77,0,0,1,32.38,77.91a3.14,3.14,0,1,1,6.16-1.17A34.54,34.54,0,0,0,52.15,98.21a3.13,3.13,0,0,1-1.85,5.66Z"/><path class="cls-1" d="M109.79,66.38a3.14,3.14,0,0,1-3.08-2.55A34.53,34.53,0,0,0,93.1,42.35a3.13,3.13,0,1,1,3.7-5.05,40.75,40.75,0,0,1,16.07,25.36,3.12,3.12,0,0,1-2.49,3.66,3,3,0,0,1-.59.06Z"/></svg>