<svg xmlns="http://www.w3.org/2000/svg" width="226" height="226" viewBox="0 0 225.7 225.7"><style>.a{fill:none;stroke-linejoin:round;stroke-width:3;stroke:#fff;}</style><path d="M225.7 112.8C225.7 175.2 175.2 225.7 112.8 225.7 50.5 225.7 0 175.2 0 112.8 0 50.5 50.5 0 112.8 0 175.2 0 225.7 50.5 225.7 112.8z"/><path d="M151.8 112.8C151.8 134.4 134.4 151.8 112.8 151.8 91.3 151.8 73.9 134.4 73.9 112.8 73.9 91.3 91.3 73.9 112.8 73.9 134.4 73.9 151.8 91.3 151.8 112.8z" fill="#fff"/><path d="M116.9 112.8C116.9 115.1 115.1 116.9 112.8 116.9 110.6 116.9 108.8 115.1 108.8 112.8 108.8 110.6 110.6 108.8 112.8 108.8 115.1 108.8 116.9 110.6 116.9 112.8z"/><path d="M20.1 66.2C30.9 44.7 49 27.5 71.1 17.8" class="a"/><path d="M207.9 154.6C197.4 178.4 178.3 197.5 154.5 207.9" class="a"/><path d="M27 65.3C36.7 47.6 51.8 33.3 70.1 24.5" class="a"/><path d="M201.2 155.5C191.6 175.4 175.5 191.6 155.6 201.2" class="a"/><path d="M31.3 68.1C40.8 50.8 55.7 36.8 73.6 28.5" class="a"/><path d="M197.3 151.9C188.1 171.7 172.2 187.7 152.5 197" class="a"/><path d="M194.6 145C187 164.3 172.8 180.2 154.8 190" class="a"/><path d="M34.8 72.4C43.2 56.3 56.4 43.2 72.4 34.8" class="a"/><path d="M188.9 145.9C181.2 163.5 167.6 177.9 150.5 186.7" class="a"/><path d="M40.2 72.9C48.5 57.8 61.4 45.6 76.9 38.1" class="a"/><path d="M42.9 79.5C49.6 65.3 60.6 53.5 74.2 45.6" class="a"/><path d="M176.4 145.9C170.3 157.8 160.8 167.7 149.4 174.5" class="a"/><path d="M50.7 77.2C57.5 65.3 67.6 55.6 79.8 49.2" class="a"/><path d="M169.1 147C162.9 157.2 154 165.6 143.4 171.1" class="a"/><path d="M57.4 77.4C63.9 67.2 73.2 58.9 84.2 53.6" class="a"/><path d="M165.9 141.2C161 150.5 153.7 158.3 144.8 163.9" class="a"/><path d="M62 80.6C67.5 71.9 75.1 64.8 84.2 59.9" class="a"/><path d="M162.7 136.6C158 146.4 150.5 154.6 141.2 160.2" class="a"/><path d="M64.3 86.6C69.4 77.2 77.2 69.4 86.6 64.3" class="a"/><path d="M156.9 135.6C152.6 144 145.9 151 137.7 155.7" class="a"/><path d="M70 87.9C75.2 79 83.2 71.8 92.7 67.5" class="a"/><path d="M154.1 129.8C150 139.8 142.4 147.9 132.8 152.7" class="a"/><path d="M73.2 92.4C77.5 84.2 84.2 77.5 92.4 73.2" class="a"/><path d="M185.2 140.6C179.1 156.5 168 169.8 153.8 178.7" class="a"/></svg>
