<svg id="Calque_1" data-name="Calque 1" xmlns="http://www.w3.org/2000/svg" viewBox="0 0 140.56 140.56"><defs><style>.cls-1{fill:#67c6e4;}.cls-2{fill:#5194d0;}.cls-3{fill:#3986c7;}.cls-4{fill:#9cc97c;}.cls-5{fill:#89c061;}.cls-6{fill:#666d79;}.cls-7{fill:#565d67;}.cls-8{fill:#e6e9ed;}.cls-9{fill:#ccd1d9;}</style></defs><path class="cls-1" d="M128,71.79A56.64,56.64,0,1,1,71.36,15.15,56.64,56.64,0,0,1,128,71.79Z"/><path class="cls-2" d="M127.65,78.11A56.64,56.64,0,0,1,15.83,83c-.05-.21-.09-.42-.13-.64,0,0,0-.06,0-.09a66.45,66.45,0,0,1,112-4.11Z"/><path class="cls-3" d="M45.63,94.33a56,56,0,0,0,9.89,31.86,56.74,56.74,0,0,1-39.83-44,66.46,66.46,0,0,1,52-32.59A56.18,56.18,0,0,0,45.63,94.33Z"/><path class="cls-4" d="M74.81,128.33a56.71,56.71,0,0,1-24.24-3.84h0A59.21,59.21,0,0,1,45,121.94h0a56.4,56.4,0,0,1-26.58-30h0a55.91,55.91,0,0,1-2.73-9.72A66.47,66.47,0,0,1,34.06,62c10.74-3.09,18.82-4.15,24.83-4,11.89.36,15.74,5.56,16.33,9.45C77,79.48,48.1,97,47,97.71a7.58,7.58,0,0,1-1.22.64c-4.36,1.88-7.42-1.51-11.9,1.09-6.55,3.63-3.45,10.49.28,7.63,3.4-2.64,5.86-1.21,6.84,1.24s2.76,15.08,7.54,7.89c.56-.62,1.07-2.15,2.84-2.14,6.19,0,16.71,8,17.14,9.6C69.49,126.34,74,126.8,74.81,128.33Z"/><path class="cls-5" d="M55.52,126.19c-1.69-.49-3.33-1.06-5-1.7h0A56.49,56.49,0,0,1,45,121.94h0a56.4,56.4,0,0,1-26.58-30h0a56.15,56.15,0,0,1-2.73-9.72A66.47,66.47,0,0,1,34.06,62c10.74-3.09,18.82-4.15,24.83-4A56,56,0,0,0,45.63,94.33c0,1.35,0,2.69.14,4-4.36,1.88-7.42-1.51-11.9,1.09-6.55,3.63-3.45,10.49.28,7.63,3.4-2.64,5.86-1.21,6.84,1.24s2.76,15.08,7.54,7.89c.28-.31.55-.86,1-1.32A57.36,57.36,0,0,0,55.52,126.19Z"/><path class="cls-4" d="M127.65,78.11a56.38,56.38,0,0,1-2.78,12.3c-5.13,9.63-5.06-11.29-16.82-.67-6.38,5.77-13-5.16-5.34-4.4C109.77,86,116.85,66,116.87,66A66.5,66.5,0,0,1,127.65,78.11Z"/><path class="cls-4" d="M122,97.16a56.91,56.91,0,0,1-22.46,23.78,6,6,0,0,1-.8-.37c-3.67-1.94-6.33-4.33-7.3-9.65a15.65,15.65,0,0,1,.48-8.36C96.34,87.34,117.06,95.42,122,97.16Z"/><path class="cls-6" d="M96.87,99.88v1.27a5.1,5.1,0,0,1-5.08,5.11H51a5.1,5.1,0,0,1-5.1-5.1V99.88Z"/><path class="cls-7" d="M91.76,99.88v1.27a5.1,5.1,0,0,1-5.08,5.11h5.11a5.1,5.1,0,0,0,5.08-5.11V99.88Z"/><path class="cls-8" d="M86,39.92H96.87a14,14,0,0,1,0,28.07V99.88h-51V68a14,14,0,0,1,0-28.07H56.73a17.85,17.85,0,0,1,29.31,0Z"/><path class="cls-9" d="M96.87,39.92H91.76a14,14,0,0,1,0,28.07V99.88h5.11V68a14,14,0,0,0,0-28.07Z"/><path class="cls-9" d="M71.36,89.66a1.27,1.27,0,0,1-1.27-1.27V64.16a1.28,1.28,0,1,1,2.55,0V88.39A1.27,1.27,0,0,1,71.36,89.66Z"/><path class="cls-9" d="M59.88,89.66a1.27,1.27,0,0,1-1.27-1.27V64.16a1.28,1.28,0,1,1,2.55,0V88.39A1.27,1.27,0,0,1,59.88,89.66Z"/><path class="cls-9" d="M82.85,89.66a1.27,1.27,0,0,1-1.28-1.27V64.16a1.28,1.28,0,1,1,2.55,0V88.39A1.27,1.27,0,0,1,82.85,89.66Z"/></svg>