<svg xmlns="http://www.w3.org/2000/svg" viewBox="0 0 59 59"><style>.a{fill:#FAC176;}.b{fill:#88C057;}.c{fill:#F3D55B;}.d{fill:#A5A5A4;}.e{fill:#5E5F62;}</style><circle cx="29" cy="30" r="29" fill="#285680"/><path d="M29 1c-4 0-7.9 0.8-11.4 2.3 -0.2 0.9-1 2.6-0.9 3.1 0.1 0 7.4-7.4 6.5-2.4 -0.6 3.2-6.5 3.2-6.3 6.5 6.2 2.4 8.4-4.6 13.7-4.6 1.8 0 6.3-2.8 7.2-2.2 3.5 2.3-0.8 10.5-3.5 7.8 -2.6-2.6-6.2 0.9-6.1 4.9 1.3 0.1 1.9-3.8 3.1-2.5 1.3 1.4 0.8 4.3-1 4.9 -1.8 0.7-9.1-4.9-7.3-0.7 2 4.7-5.9 8.3 2 6.4 3.7-0.9 2.5 1.9 4.2 3.3 2.1 1.6 1.2-2.2 2.7-1.6 2.2 0.9-0.4 3.1 3.1 1.5 4.1-1.9 2.5 1 3.8 2.9 2.3 3.5 8.1 6.9 11.1 2.3 0.7-1.1 0.3-9.8 4.7-4 2.8 3.7 1.9-4.4 2.2-6.5C53.5 10 42.3 1 29 1z" fill="#24AE5F"/><path d="M32.9 43.1l-5.3-4 -3.6 0.1 -3.7-1.2 -2.9-2 -6.6 1.5L8 38.9 5 43l1.1 4.8c0.3 0.4 0.6 0.8 0.9 1.2l5.6 2.6 3.8 0.5 2.3 4.6 0.1 0.5C21.9 58.3 25.4 59 29 59c2.5 0 4.9-0.3 7.2-0.9l0.8-4.5 3.5-2.8 1.4-4.5 -7.2 0L32.9 43.1z" class="a"/><path d="M0.4 34.6c0.1 0 0.2 0 0.2 0 1.3-1.3 2.4-1.5 3.5-3.5 1.1-1.9-0.2-1.9 0-5.2 0.2-3.2-0.2-1.7 0-5.2 0.1-1.2-0.1-1.9-1.6-2.4C0.9 21.9 0 25.9 0 30 0 31.6 0.1 33.1 0.4 34.6z" class="b"/><path d="M30 54c-1.1-0.1-5.1-1.3-6-3 -0.9-1.7-2.9-4.5-3-4 -0.1 0.3-9.1-2.7-15.3-4.9L5 43l1.1 4.8c0.3 0.4 0.6 0.8 0.9 1.2l5.6 2.6 3.8 0.5 2.3 4.6 0.1 0.5C21.9 58.3 25.4 59 29 59c2.5 0 4.9-0.3 7.2-0.9l0.6-3.4C36.3 54.5 35.7 54.3 35 54 32.3 52.9 31.1 54.1 30 54z" class="a"/><path d="M40.4 50.7l1.4-4.5 -7.2 0 -1.7-3.1 -5.3-4 -3.6 0.1 -3.7-1.2 -2.9-2 -6.6 1.5L8 38.9l-2.4 3.2C11.9 44.3 20.9 47.3 21 47c0.1-0.5 2.1 2.3 3 4 0.9 1.7 4.9 2.9 6 3 1.1 0.1 2.3-1.1 5 0 0.7 0.3 1.3 0.5 1.8 0.6l0.2-1.1L40.4 50.7z" class="b"/><path d="M39.9 3.2c-0.2 3.7-0.3 6.3-0.3 6.3L34 15c0 0 5.2 7.5 5.6 8.4 0.3 0.9 4.7 1.9 5.6 1.4 0.9-0.5 4.2-3.3 5.6-1.4 1 1.3 0.8 2.5 1.4 3.3 0.4 0 0.9 0.3 1.6 0.9 0.9 0.3 1.9 0.5 2.9 0.8 0.3-1.8 0.1-5 0.3-6.2C54.5 13.5 48.2 6.5 39.9 3.2z" class="b"/><path d="M43.3 4.8C43.1 8.3 43 11 43 11l-4 4c0 0 3.8 5.4 4 6s3.4 1.4 4 1 3-2.4 4-1 0.4 2.5 2 3c1.4 0.4 3.3 0.8 3.8 1 0-1.1 0-2.1 0.1-2.7C54.9 14.8 49.9 8.6 43.3 4.8z" class="a"/><circle cx="2" cy="6" r="1" class="c"/><circle cx="58" cy="1" r="1" class="c"/><circle cx="3" cy="50" r="1" class="c"/><circle cx="2" cy="57" r="1" class="c"/><circle cx="56" cy="8" r="1" class="c"/><circle cx="47" cy="3" r="1" class="c"/><circle cx="45.5" cy="46.5" r="12.5" fill="#D1D4D1"/><circle cx="52.5" cy="51.5" r="3.5" class="d"/><circle cx="40.5" cy="40.5" r="4.5" class="d"/><circle cx="41" cy="53" r="1" class="e"/><circle cx="53" cy="43" r="1" class="e"/></svg>
