<?xml version="1.0" encoding="iso-8859-1"?>
<!-- Generator: Adobe Illustrator 19.0.0, SVG Export Plug-In . SVG Version: 6.00 Build 0)  -->
<svg version="1.1" id="Layer_1" xmlns="http://www.w3.org/2000/svg" xmlns:xlink="http://www.w3.org/1999/xlink" x="0px" y="0px"
	 viewBox="0 0 512.001 512.001" style="enable-background:new 0 0 512.001 512.001;" xml:space="preserve">
<rect x="95.889" y="143.923" style="fill:#ED7149;" width="320.224" height="360.257"/>
<rect x="87.878" y="143.923" style="fill:#F9B233;" width="48.034" height="360.257"/>
<rect x="127.911" y="472.158" style="fill:#FFFFFF;" width="40.033" height="32.023"/>
<rect x="376.09" y="143.923" style="fill:#F9B233;" width="48.034" height="360.257"/>
<g>
	<rect x="95.889" y="7.823" style="fill:#FAC15C;" width="320.224" height="40.033"/>
	<rect x="95.889" y="103.89" style="fill:#FAC15C;" width="320.224" height="40.033"/>
</g>
<rect x="95.889" y="47.851" style="fill:#F9B233;" width="320.224" height="56.04"/>
<rect x="175.945" y="31.84" style="fill:#FFFFFF;" width="160.112" height="88.067"/>
<g>
	<rect x="207.967" y="56.04" style="fill:#1D1D1B;" width="96.067" height="15.646"/>
	<rect x="231.979" y="80.056" style="fill:#1D1D1B;" width="48.034" height="15.646"/>
</g>
<g>
	<rect x="264.189" y="223.979" style="fill:#FFFFFF;" width="15.646" height="16.011"/>
	<rect x="264.189" y="191.957" style="fill:#FFFFFF;" width="15.646" height="16.012"/>
</g>
<g>
	<path style="fill:#1D1D1B;" d="M168.119,127.725h175.76V24.017h-175.76V127.725z M183.766,39.663h144.468v72.416H183.766V39.663z"
		/>
	<rect x="128.088" y="159.934" style="fill:#1D1D1B;" width="15.646" height="296.212"/>
	<polygon style="fill:#1D1D1B;" points="408.29,496.354 383.907,496.354 383.907,159.931 368.261,159.931 368.261,496.354 
		264.005,496.354 264.005,512 423.936,512 423.936,159.931 408.29,159.931 	"/>
	<path style="fill:#1D1D1B;" d="M279.834,256.001h-15.646v8.188h-24.017v232.166H175.76v-32.023h-55.675v32.023h-16.376V159.932
		H88.063v352.069h167.755V279.834h24.016V256.001z M135.731,479.977h24.383v16.377h-24.383L135.731,479.977L135.731,479.977z"/>
	<path style="fill:#1D1D1B;" d="M88.063,0v151.743h176.125v24.2h15.646v-24.2h144.103V0H88.063z M408.29,40.029h-56.223v15.646
		h56.223v40.394h-56.223v15.646h56.223v24.382H103.709v-24.382h56.223V96.069h-56.223V55.675h56.223V40.029h-56.223V15.646H408.29
		V40.029z"/>
</g>
<g>
</g>
<g>
</g>
<g>
</g>
<g>
</g>
<g>
</g>
<g>
</g>
<g>
</g>
<g>
</g>
<g>
</g>
<g>
</g>
<g>
</g>
<g>
</g>
<g>
</g>
<g>
</g>
<g>
</g>
</svg>
